<?xml version="1.0" encoding="UTF-8" standalone="no"?>
<!DOCTYPE svg PUBLIC "-//W3C//DTD SVG 1.1//EN" "http://www.w3.org/Graphics/SVG/1.1/DTD/svg11.dtd">
<svg width="100%" height="100%" viewBox="0 0 1080 1080" version="1.1" xmlns="http://www.w3.org/2000/svg" xmlns:xlink="http://www.w3.org/1999/xlink" xml:space="preserve" xmlns:serif="http://www.serif.com/" style="fill-rule:evenodd;clip-rule:evenodd;stroke-linejoin:round;stroke-miterlimit:2;">
    <g id="Logo">
    </g>
    <g transform="matrix(1.04406,0,0,1.04104,-32.8363,-11.5682)">
        <path d="M558.748,1043.68L289.222,1043.68C147.675,1043.68 32.757,928.433 32.757,786.475L32.757,272.056C32.757,130.099 147.675,14.847 289.222,14.847L805.129,14.847C946.676,14.847 1061.59,130.099 1061.59,272.056L1061.59,786.475C1061.59,928.433 946.676,1043.68 805.129,1043.68L558.748,1043.68C584.498,1038.33 592.583,1026.55 592.587,1012.89L592.664,739.058C635.842,762.992 690.958,768.531 751.894,768.531C890.862,768.531 1003.69,655.38 1003.69,516.009C1003.69,394.66 918.146,293.201 804.299,268.979C793.814,139.247 685.377,37.098 553.338,37.098C420.313,37.098 311.243,140.78 302.159,271.893C194.304,300.436 114.67,399.002 114.67,516.084C114.67,655.455 227.494,768.606 366.462,768.606C427.132,768.606 482.033,763.105 525.126,739.434L525.048,1012.88C525.044,1026.54 533.13,1038.33 558.748,1043.68ZM604.39,663.557L741.748,559.279C756.608,547.997 759.54,526.739 748.291,511.835C737.042,496.932 715.845,493.991 700.985,505.273L557.829,613.952L419.742,506.676C405.008,495.229 383.779,497.933 372.366,512.71C360.952,527.487 363.648,548.777 378.382,560.224L512.898,664.726C496.915,680.982 476.29,689.593 452.966,694.454C426.744,699.92 397.404,700.872 366.462,700.872C358.412,700.872 350.482,700.353 342.703,699.347C342.963,697.657 343.097,695.926 343.097,694.164L343.097,476.664L775.531,476.664L775.531,694.164C775.531,695.888 775.66,697.583 775.909,699.239C768.048,700.267 760.032,700.797 751.894,700.797C720.961,700.797 691.63,699.849 665.412,694.392C641.557,689.426 620.522,680.539 604.39,663.557ZM843.07,676.592L843.07,442.797C843.07,424.092 827.951,408.93 809.3,408.93L309.328,408.93C290.678,408.93 275.559,424.092 275.559,442.797L275.559,676.822C219.829,645.03 182.209,584.928 182.209,516.084C182.209,423.002 250.969,345.887 340.295,333.145C357.515,330.689 370.058,315.516 369.275,298.09C369.149,295.282 369.085,292.459 369.085,289.62C369.085,187.633 451.646,104.832 553.338,104.832C655.03,104.832 737.591,187.633 737.591,289.62C737.591,292.055 737.545,294.479 737.452,296.892C736.756,314.938 750.301,330.356 768.239,331.938C862.294,340.228 936.148,419.543 936.148,516.009C936.148,584.741 898.65,644.759 843.07,676.592Z"/>
    </g>
</svg>
