<?xml version="1.0" encoding="UTF-8" standalone="no"?>
<!DOCTYPE svg PUBLIC "-//W3C//DTD SVG 1.1//EN" "http://www.w3.org/Graphics/SVG/1.1/DTD/svg11.dtd">
<svg width="100%" height="100%" viewBox="0 0 1080 1080" version="1.1" xmlns="http://www.w3.org/2000/svg" xmlns:xlink="http://www.w3.org/1999/xlink" xml:space="preserve" xmlns:serif="http://www.serif.com/" style=" fill:currentColor;fill-rule:evenodd;clip-rule:evenodd;stroke-linejoin:round;stroke-miterlimit:2;">
    <g transform="matrix(1,0,0,1,-4520,0)">
        <g id="Tree">
        </g>
        <rect id="Artboard5" x="4520" y="0" width="1080" height="1080" style="fill:none;"/>
        <g id="Artboard51" serif:id="Artboard5">
            <g id="box" transform="matrix(1.47231,0,0,1.47231,-674.657,-49.0023)">
                <path style="fill:currentColor;" d="M3566.39,199.291L3709.88,143.747C3709.88,143.747 3730.9,150.468 3737.86,153.086L4040.15,268.393L3903.79,329.881L3566.39,199.291ZM4048.91,275.736L4054.67,417.959C4054.78,431.078 4072.25,439.015 4083.6,432.427C4099.38,423.264 4101.96,404.535 4101.85,391.416C4101.85,391.416 4100.32,278.899 4099.54,252.906L4230.2,193.988L4230.2,595.795L3909.09,735.244L3909.09,338.785L4048.91,275.736ZM4148.65,508.012C4151.88,506.608 4154.44,504.538 4156.32,501.801C4158.2,499.065 4159.48,496.373 4160.15,493.726C4160.29,494.474 4160.49,495.648 4160.76,497.247C4161.03,498.845 4161.27,500.274 4161.47,501.531L4173.88,496.135C4173.75,495.117 4173.6,493.938 4173.43,492.598C4173.26,491.258 4173.12,489.736 4173.02,488.03C4172.92,486.325 4172.87,484.396 4172.87,482.243L4172.87,455.297C4172.87,449.78 4171.53,445.992 4168.84,443.933C4166.14,441.874 4161.87,442.116 4156.02,444.661C4149.63,447.44 4144.88,451.1 4141.79,455.642C4138.69,460.183 4137.01,465.876 4136.74,472.721L4149.86,467.522L4150.06,463.902C4150.06,462.623 4150.22,461.431 4150.52,460.323C4150.82,459.216 4151.32,458.24 4152.03,457.395C4152.74,456.549 4153.7,455.863 4154.91,455.337C4156.19,454.781 4157.16,454.66 4157.83,454.973C4158.51,455.286 4158.96,455.963 4159.2,457.004C4159.43,458.045 4159.55,459.407 4159.55,461.089L4159.55,466.135C4156.59,468.431 4153.71,470.809 4150.92,473.267C4148.13,475.726 4145.61,478.286 4143.35,480.948C4141.1,483.61 4139.3,486.478 4137.95,489.553C4136.61,492.627 4135.94,495.981 4135.94,499.614C4135.94,501.901 4136.44,503.885 4137.45,505.566C4138.46,507.246 4139.92,508.359 4141.84,508.905C4143.76,509.451 4146.03,509.153 4148.65,508.012ZM4153.7,495.625C4152.15,496.298 4150.95,496.195 4150.11,495.316C4149.27,494.437 4148.85,492.921 4148.85,490.768C4148.85,489.153 4149.12,487.624 4149.66,486.178C4150.2,484.733 4150.94,483.285 4151.88,481.832C4152.82,480.38 4153.95,478.931 4155.26,477.486C4156.57,476.041 4158,474.545 4159.55,472.998L4159.55,489.246C4159.21,489.863 4158.74,490.606 4158.14,491.475C4157.53,492.343 4156.86,493.157 4156.12,493.916C4155.38,494.675 4154.57,495.245 4153.7,495.625ZM4182.86,492.229L4196.59,486.262L4196.59,439.94C4197.66,438.665 4198.76,437.517 4199.87,436.496C4200.98,435.475 4202,434.76 4202.94,434.35C4204.49,433.677 4205.54,433.695 4206.07,434.403C4206.61,435.111 4206.88,436.339 4206.88,438.089L4206.88,481.787L4220.61,475.819L4220.61,429.397C4220.61,427.109 4220.27,425.136 4219.6,423.477C4218.92,421.819 4217.88,420.708 4216.47,420.145C4215.06,419.582 4213.14,419.827 4210.72,420.88C4208.02,422.05 4205.52,423.762 4203.2,426.016C4200.88,428.269 4198.67,430.859 4196.59,433.784L4196.59,427.931L4182.86,433.898L4182.86,492.229ZM4031.99,558.734C4035.22,557.33 4037.77,555.26 4039.66,552.523C4041.54,549.787 4042.82,547.095 4043.49,544.448C4043.63,545.196 4043.83,546.37 4044.1,547.969C4044.37,549.567 4044.6,550.996 4044.81,552.253L4057.22,546.857C4057.08,545.839 4056.93,544.66 4056.76,543.32C4056.6,541.98 4056.46,540.458 4056.36,538.752C4056.26,537.047 4056.21,535.118 4056.21,532.965L4056.21,506.019C4056.21,500.502 4054.86,496.714 4052.17,494.655C4049.48,492.596 4045.21,492.838 4039.36,495.383C4032.96,498.162 4028.22,501.822 4025.12,506.364C4022.03,510.905 4020.35,516.598 4020.08,523.443L4033.2,518.244L4033.4,514.624C4033.4,513.345 4033.55,512.153 4033.86,511.045C4034.16,509.938 4034.66,508.962 4035.37,508.117C4036.08,507.271 4037.03,506.585 4038.24,506.059C4039.52,505.503 4040.5,505.382 4041.17,505.695C4041.84,506.008 4042.3,506.685 4042.53,507.726C4042.77,508.767 4042.89,510.129 4042.89,511.811L4042.89,516.857C4039.93,519.153 4037.05,521.531 4034.26,523.989C4031.47,526.448 4028.94,529.008 4026.69,531.67C4024.44,534.332 4022.64,537.2 4021.29,540.275C4019.95,543.349 4019.27,546.703 4019.27,550.336C4019.27,552.623 4019.78,554.607 4020.79,556.288C4021.8,557.968 4023.26,559.081 4025.18,559.627C4027.09,560.173 4029.36,559.875 4031.99,558.734ZM4037.03,546.347C4035.49,547.02 4034.29,546.917 4033.45,546.038C4032.61,545.159 4032.19,543.643 4032.19,541.49C4032.19,539.875 4032.46,538.346 4033,536.9C4033.54,535.455 4034.28,534.007 4035.22,532.554C4036.16,531.102 4037.29,529.653 4038.6,528.208C4039.91,526.763 4041.34,525.267 4042.89,523.72L4042.89,539.968C4042.55,540.585 4042.08,541.328 4041.47,542.197C4040.87,543.065 4040.2,543.879 4039.46,544.638C4038.72,545.397 4037.91,545.967 4037.03,546.347ZM3995.45,574.618C3999.56,572.833 4002.94,570.674 4005.6,568.139C4008.26,565.605 4010.21,562.687 4011.45,559.388C4012.7,556.088 4013.32,552.487 4013.32,548.585L4013.32,543.034L4000.4,548.651L4000.4,554.908C4000.4,556.59 4000.28,558.071 4000.05,559.35C3999.81,560.63 3999.34,561.726 3998.63,562.639C3997.93,563.552 3996.9,564.301 3995.56,564.886C3993.81,565.646 3992.53,565.546 3991.72,564.585C3990.91,563.624 3990.51,561.26 3990.51,557.492L3990.51,536.097C3990.51,533.608 3990.66,531.591 3990.96,530.046C3991.27,528.502 3991.79,527.249 3992.53,526.288C3993.27,525.327 3994.24,524.584 3995.45,524.057C3996.67,523.531 3997.64,523.359 3998.38,523.542C3999.12,523.724 3999.64,524.339 3999.95,525.384C4000.25,526.43 4000.4,527.962 4000.4,529.981L4000.4,535.128L4013.32,529.511L4013.32,524.667C4013.32,520.63 4012.71,517.546 4011.5,515.415C4010.29,513.284 4008.36,512.141 4005.7,511.984C4003.04,511.828 3999.63,512.656 3995.45,514.47C3991.01,516.4 3987.41,518.806 3984.66,521.688C3981.9,524.569 3979.9,527.861 3978.65,531.565C3977.41,535.268 3976.79,539.373 3976.79,543.881L3976.79,561.441C3976.79,565.814 3977.41,569.328 3978.65,571.983C3979.9,574.637 3981.88,576.23 3984.61,576.761C3987.33,577.292 3990.95,576.578 3995.45,574.618ZM3921.99,605.652L3936.01,599.553L3939.34,579.233L3953.57,573.047L3956.8,590.514L3970.63,584.503L3954.28,509.867L3938.34,516.799L3921.99,605.652ZM3940.86,569.089L3946.41,532.363L3951.96,564.262L3940.86,569.089ZM4079.32,538.156C4081.27,537.307 4083.12,536.049 4084.87,534.38C4086.62,532.711 4088.27,530.767 4089.82,528.547L4089.82,532.684L4103.54,526.717L4103.54,444.972L4089.82,450.94L4089.82,477.986C4088.34,477.284 4086.7,476.9 4084.92,476.834C4083.14,476.768 4081.2,477.189 4079.12,478.096C4075.69,479.587 4072.96,481.731 4070.94,484.526C4068.92,487.321 4067.46,490.531 4066.55,494.155C4065.64,497.779 4065.19,501.61 4065.19,505.646L4065.19,523.509C4065.19,530.775 4066.39,535.538 4068.77,537.796C4071.16,540.054 4074.68,540.174 4079.32,538.156ZM4084.37,526.475C4082.89,527.119 4081.76,527.155 4080.98,526.583C4080.21,526.011 4079.69,525.01 4079.42,523.579C4079.15,522.149 4079.02,520.458 4079.02,518.507L4079.02,496.709C4079.02,494.152 4079.4,491.814 4080.18,489.695C4080.95,487.575 4082.31,486.092 4084.26,485.243C4085.27,484.805 4086.25,484.565 4087.19,484.526C4088.13,484.486 4089.01,484.56 4089.82,484.748L4089.82,522.189C4088.81,523.233 4087.83,524.128 4086.89,524.874C4085.95,525.62 4085.11,526.154 4084.37,526.475ZM4114.34,454.406L4128.06,448.439L4128.06,437.035L4114.34,443.002L4114.34,454.406ZM4114.34,522.022L4128.06,516.055L4128.06,457.723L4114.34,463.691L4114.34,522.022ZM4092.41,244.829L3777.95,117.376L3894.11,72.372L4223.1,185.893L4092.41,244.829ZM3898.79,735.487L3559.26,604.071L3559.26,207.571L3898.79,338.987L3898.79,735.487ZM3785.87,418.606L3786.08,415.503L3784.74,415.23C3782.37,414.774 3779.48,415.433 3778.21,416.742C3776.84,418.18 3776.01,420.888 3776.01,424.036C3776.01,425.588 3775.81,426.535 3775.36,427.033C3774.36,428.201 3772.23,431.859 3772.23,432.376C3772.23,432.721 3772.85,432.987 3774.47,433.248C3776.08,433.51 3777.32,433.997 3778.86,434.919C3783.84,437.962 3788.2,437.548 3791.37,433.73C3792.22,432.718 3792.88,431.791 3792.81,431.718C3791.61,429.865 3787.14,426.655 3785.08,426.159L3783.64,425.756L3784.63,423.725C3785.39,422.281 3785.7,420.861 3785.87,418.606ZM3684.79,373.243C3683.69,372.168 3682.42,371.148 3681.97,370.956C3681.25,370.647 3681.22,370.805 3681.22,373.392C3681.22,375.634 3681.42,376.715 3682.35,379.442L3683.48,382.774L3681.87,381.823C3680.94,381.295 3679.46,380.791 3678.57,380.666C3676.68,380.416 3674.35,380.621 3674.35,381.01C3674.41,381.858 3677.51,387.498 3678.91,389.309C3681.25,392.339 3682.42,393.185 3688.43,396.195C3691.35,397.621 3694.2,399.146 3694.71,399.54L3695.68,400.254L3694.58,397.454C3693.99,395.953 3693.1,393.715 3692.55,392.53C3691.86,390.942 3691.55,389.645 3691.42,387.3C3691,381.517 3688.98,377.198 3684.79,373.243ZM3753.79,391.514C3753.1,390.141 3752.35,389.083 3752.04,389.037C3751.18,388.884 3749.29,391.48 3748.71,393.645C3748.02,396.369 3748.05,400.868 3748.84,405.175C3749.22,407.191 3749.63,409.74 3749.74,410.905C3749.87,412.129 3750.08,413.123 3750.22,413.182C3750.91,413.477 3753.79,411.869 3754.72,410.671C3756.68,408.147 3757.33,403.166 3756.3,398.455C3755.64,395.544 3755.23,394.375 3753.79,391.514ZM3716.56,375.406C3715.97,374.25 3715.39,373.223 3715.22,373.149C3715.08,373.091 3714.43,373.544 3713.85,374.156C3710,377.982 3709.72,387.135 3713.23,393.641C3714.5,395.955 3716.83,399.157 3717.11,398.886C3717.28,398.788 3718.14,394.067 3718.86,389.59C3719.68,384.51 3719,380.291 3716.56,375.406ZM3809.23,456.79L3809.43,453.687L3808.5,453.289C3807.27,452.758 3803.59,452.777 3802.29,453.295C3799.37,454.543 3797.62,457.845 3797.38,462.4C3797.31,464.224 3797.27,465.719 3797.34,465.749C3797.68,465.896 3803.04,465.91 3803.63,465.772C3805.03,465.428 3807.37,463.282 3808.2,461.652C3808.78,460.436 3809.12,458.902 3809.23,456.79ZM3817.57,415.996C3817.26,414.872 3817.09,414.669 3816.27,414.574C3811.7,414.036 3809.4,417.146 3809.88,423.303C3809.98,424.943 3810.22,426.556 3810.36,426.916C3810.7,427.754 3814.31,426.973 3815.75,425.694C3817.64,424.047 3818.5,419.456 3817.57,415.996ZM3665.49,338.826C3664.63,337.767 3663.63,336.779 3663.32,336.646C3662.57,336.322 3661.98,339.004 3661.98,342.842C3661.98,347.672 3663.63,351.7 3667.41,356.297C3668.23,357.255 3668.99,358.053 3669.06,357.997C3669.12,357.94 3669.43,356.736 3669.74,355.359C3670.98,349.809 3669.37,343.596 3665.49,338.826ZM3774.26,363.858C3773.78,362.185 3773.16,361.92 3771,362.587C3768.97,363.141 3767.77,364.307 3766.46,366.851C3765.64,368.481 3765.54,369.084 3765.54,373.181C3765.54,375.682 3765.67,379.062 3765.81,380.716L3766.09,383.724L3767.87,383.153C3772.3,381.82 3774.4,378.623 3775.12,372.118C3775.36,370.195 3774.91,366.251 3774.26,363.858ZM3791.54,456.659C3791.19,455.52 3790.99,455.259 3790.34,455.238C3787.14,455.075 3784.01,457.399 3782.88,460.664C3782.4,462.183 3782.2,463.733 3782.2,466.493C3782.2,470.935 3782.43,472.289 3783.19,472.613C3784.26,473.07 3787.97,472.161 3789.24,471.067C3791.37,469.308 3791.98,467.373 3791.95,462.356C3791.95,459.984 3791.74,457.395 3791.54,456.659ZM3820.01,434.508C3818.67,433.416 3814.86,431.823 3813.28,431.662C3812.52,431.597 3811.22,431.727 3810.39,431.977L3808.92,432.421L3809.88,433.869C3811.42,436.128 3814.72,439.483 3816.37,440.536C3817.4,441.15 3818.5,441.493 3819.77,441.521C3821.73,441.585 3824.1,440.488 3824.1,439.497C3824.1,438.893 3821.49,435.703 3820.01,434.508ZM3686.3,332.751C3683.59,329.904 3683.04,330.401 3682.97,335.633C3682.93,339.413 3683.69,342.412 3685.51,345.435C3686.95,347.822 3690.66,352.174 3691.04,351.862C3691.14,351.777 3691.38,350.414 3691.59,348.864C3691.9,346.322 3691.86,345.575 3691.21,342.664C3690.39,338.86 3688.53,335.132 3686.3,332.751ZM3807.47,475.703L3807.71,473.219L3806.65,472.762C3805.31,472.187 3801.22,472.028 3799.71,472.501C3797.68,473.098 3795.93,474.675 3793.8,477.815C3791.16,481.682 3790.03,482.662 3785.63,484.786L3782.02,486.559L3784.26,487.905C3788.79,490.627 3794.11,490.799 3797.75,488.35L3799.37,487.275L3800.91,489.275C3805.14,494.711 3811.32,497.924 3815.79,496.994C3816.99,496.734 3821.35,493.172 3821.35,492.439C3821.35,491.792 3818.16,488.826 3815.61,487.131C3811.73,484.517 3809.71,484.079 3804.59,484.685C3804.31,484.697 3804.59,483.952 3805.17,483.039C3806.55,480.868 3807.16,478.805 3807.47,475.703ZM3699.69,361.959C3698.7,360.928 3697.63,360.04 3697.36,360.008C3696.53,359.827 3695.95,363.759 3696.05,368.59C3696.16,372.343 3696.29,373.351 3697.12,375.818C3698.25,379.194 3700.55,382.941 3703.54,386.207C3705.16,387.978 3705.74,388.444 3705.95,388.145C3706.49,387.259 3707.08,381.127 3706.87,378.15C3706.74,376.279 3706.32,373.989 3705.81,372.345C3704.74,368.913 3702.03,364.298 3699.69,361.959ZM3708.93,349.882C3708.14,348.766 3707.32,347.766 3707.08,347.662C3706.87,347.574 3706.29,348.315 3705.81,349.36C3705.05,350.89 3704.91,351.823 3704.91,354.669C3704.91,358.679 3705.64,361.447 3707.42,364.585C3708.49,366.422 3711.06,369.857 3711.23,369.628C3711.82,368.93 3712.57,365.503 3712.71,363.017C3712.99,357.96 3711.85,353.981 3708.93,349.882ZM3654.15,405.247C3651.61,403.595 3648.86,402.675 3646.94,402.928C3645.36,403.155 3642.75,404.407 3642.75,404.968C3642.75,405.183 3643.64,406.213 3644.77,407.347C3648.76,411.299 3652.95,411.847 3655.08,408.707C3655.66,407.836 3656.14,407.007 3656.14,406.835C3656.14,406.662 3655.25,405.977 3654.15,405.247ZM3695.92,329.978C3693.72,327.697 3693.41,327.694 3692.76,330.045C3691.42,334.731 3692.38,341.958 3695.02,347.276C3696.22,349.689 3700.97,356.165 3701.31,355.881C3701.38,355.824 3701.55,352.836 3701.69,349.23C3701.89,343.194 3701.86,342.446 3701.17,339.952C3700.28,336.637 3697.84,332.011 3695.92,329.978ZM3769.97,421.312L3770.17,419.589L3768.22,418.749C3760.69,415.564 3753.48,418.636 3750.97,426.185C3750.22,428.448 3749.33,436.388 3749.7,437.758C3749.87,438.392 3750.12,438.452 3751.52,438.151C3753.51,437.755 3756.02,435.553 3756.92,433.479C3757.47,432.162 3757.71,431.963 3758.87,432.249C3764.88,433.621 3768.94,429.624 3769.97,421.312ZM3667.1,360.477C3663.73,358.127 3659.92,356.706 3659.92,357.785C3659.92,358.043 3660.37,359.615 3660.92,361.317C3663.05,367.923 3668.4,373.328 3673.8,374.391C3674.93,374.619 3675.89,374.73 3675.99,374.688C3676.27,374.418 3674.28,369.466 3673.04,367.34C3671.12,364.056 3669.54,362.214 3667.1,360.477ZM3674.14,351.467C3672.08,349.634 3672.05,349.662 3671.77,352.347C3671.29,357.488 3672.73,361.946 3676.06,365.489C3678.81,368.393 3679.02,368.395 3679.26,365.609C3679.77,359.749 3678.02,354.901 3674.14,351.467ZM3837.97,487.843C3835.43,485.631 3831.59,484.067 3829.39,484.417C3827.91,484.646 3824.44,487.297 3824.44,488.203C3824.44,488.332 3825.4,489.219 3826.57,490.195C3829.56,492.598 3833.1,494.073 3835.16,493.707C3836.88,493.366 3840.03,490.841 3839.83,489.933C3839.72,489.587 3838.9,488.672 3837.97,487.843ZM3808.81,438.199C3808.44,437.907 3806.58,437.025 3804.69,436.257C3800.19,434.456 3798.24,434.737 3795.25,437.594C3794.11,438.661 3793.32,439.745 3793.46,439.976C3793.6,440.164 3794.56,441.138 3795.59,442.141C3797,443.521 3798.3,444.383 3800.74,445.559C3805.31,447.735 3807.3,447.641 3810.43,445.015C3811.73,443.98 3812.76,442.826 3812.76,442.481C3812.76,441.921 3810.6,439.569 3808.81,438.199ZM3663.94,375.767C3662.77,375.094 3661.02,374.385 3660.02,374.087C3658.13,373.578 3654.43,373.927 3654.43,374.574C3654.43,374.789 3655.39,376.625 3656.55,378.679C3659.54,383.842 3661.53,385.689 3666.45,387.797C3669.3,388.977 3670.47,389.306 3672.08,389.222C3673.18,389.177 3674.17,389.087 3674.28,389.044C3674.38,388.959 3673.56,387.226 3672.49,385.259C3670.09,380.777 3667.17,377.541 3663.94,375.767ZM3678.33,407.991C3677.37,407.017 3676.41,406.13 3676.17,406.027C3675.55,405.719 3674.93,410.024 3675.1,413.721C3675.34,419.128 3677.16,423.23 3681.22,427.557C3682.04,428.428 3683.14,429.503 3683.65,429.897L3684.58,430.64L3684.79,427.365C3685.06,423.645 3684.58,419.298 3683.59,416.413C3682.62,413.585 3680.39,410.039 3678.33,407.991ZM3831.38,449.608C3829.7,448.584 3829.11,448.333 3826.85,447.835C3823.79,447.126 3820.66,447.683 3818.67,449.329C3817.02,450.691 3814.48,455.207 3814.48,456.803C3814.48,457.579 3814.65,457.696 3816.95,458.424C3825.16,460.998 3828.91,459.888 3831.35,454.207C3832.62,451.26 3832.62,450.397 3831.38,449.608ZM3691.28,403.456C3689.22,401.968 3684.75,400.354 3684.1,400.85C3683.76,401.177 3685.95,406.95 3687.26,409.192C3689.49,412.954 3693.55,416.418 3698.01,418.377C3699.11,418.849 3699.14,418.82 3698.94,417.395C3698.63,415.236 3697.26,411.153 3696.16,409.042C3695.09,406.99 3693.24,404.857 3691.28,403.456ZM3642.58,386.997C3637.97,383.944 3633.61,383.279 3629.35,384.988C3628.94,385.156 3629.15,385.633 3630.38,387.629C3633.64,392.738 3639.04,397.381 3642.92,398.4C3643.85,398.626 3646.18,398.765 3648.07,398.67C3649.96,398.575 3651.71,398.508 3651.99,398.54C3652.78,398.62 3649.41,393.294 3647.08,390.825C3645.94,389.606 3643.91,387.874 3642.58,386.997ZM3678.74,396.093C3677.68,395.247 3676.2,394.441 3675.2,394.143C3673.45,393.65 3669.12,394.165 3668.92,394.939C3668.78,395.613 3671.53,399.207 3673.14,400.417C3674.79,401.686 3677.33,402.474 3678.78,402.145C3679.98,401.884 3682.25,400.485 3682.25,399.968C3682.25,399.364 3680.56,397.521 3678.74,396.093ZM3794.46,445.708C3792.43,443.976 3789.55,443.126 3787.24,443.518C3786.18,443.665 3785.29,443.972 3785.29,444.187C3785.29,444.36 3785.84,445.372 3786.49,446.385C3789.37,450.771 3792.6,452.89 3795.62,452.376C3797.38,452.093 3799.03,451.291 3799.03,450.773C3799.03,450.385 3795.97,446.96 3794.46,445.708ZM3640.96,368.062C3638.69,366.615 3636.63,365.645 3635.6,365.591C3634.88,365.497 3634.81,365.683 3635.02,367.151C3635.36,369.757 3636.91,374.043 3638.42,376.632C3640.79,380.624 3644.36,383.753 3650.1,386.861L3652.81,388.328L3652.57,386.974C3652.06,384.165 3650.06,378.998 3648.41,376.177C3646.49,372.851 3643.67,369.788 3640.96,368.062ZM3777.63,457.547C3777.42,456.854 3777.11,456.636 3775.6,456.203C3774.6,455.948 3772.92,455.613 3771.89,455.559C3765.81,455.064 3761.59,459.461 3760.8,467.272L3760.62,469.053L3762.2,469.472C3770.96,471.721 3775.98,468.871 3777.42,460.779C3777.66,459.459 3777.73,458.022 3777.63,457.547ZM3818.5,475.691C3817.71,475.179 3816.95,474.682 3816.82,474.58C3816.47,474.347 3811.22,473.04 3811.12,473.169C3810.91,473.296 3812.63,477.224 3813.49,478.584C3815.79,482.246 3819.8,484.488 3822.69,483.699C3823.65,483.465 3824.44,483.157 3824.44,482.985C3824.44,482.467 3822.21,479.094 3821.08,477.874C3820.42,477.206 3819.29,476.245 3818.5,475.691ZM3692.69,420.879C3689.46,418.804 3689.46,418.804 3689.46,420.917C3689.46,425.186 3691.52,431.418 3694.23,435.256C3696.22,438.095 3699.66,441.423 3702.65,443.439C3706.7,446.17 3706.56,446.154 3706.25,443.434C3705.09,433.618 3700.35,425.762 3692.69,420.879ZM3650.24,432.201C3649.24,431.429 3647.73,430.479 3646.9,430.125L3645.39,429.433L3645.63,431.563C3646.42,439.406 3650.44,446.09 3656.38,449.459L3658.55,450.69L3658.55,449.439C3658.55,445.946 3656.86,440.437 3654.84,437.282C3653.12,434.604 3652.54,433.965 3650.24,432.201ZM3692.45,505.991C3692.28,504.667 3692,503.772 3691.69,503.64C3691.42,503.522 3689.77,503.72 3688.02,504.089C3680.91,505.61 3677.26,511.68 3677.95,520.945L3678.19,524.239L3679.91,524.718C3688.6,526.981 3694.03,518.873 3692.45,505.991ZM3699.11,513.12C3698.25,512.406 3697.43,511.751 3697.26,511.677C3697.01,511.531 3696.88,514.318 3697.01,517.568C3697.22,522.659 3700.21,527.823 3704.81,531.048C3705.81,531.735 3705.95,531.707 3706.15,530.761C3706.29,530.173 3706.29,528.405 3706.18,526.808C3705.77,521.413 3703.23,516.441 3699.11,513.12ZM3821.56,505.336C3819.29,503.759 3815.37,503.372 3813.04,504.44C3811.29,505.284 3809.47,508.513 3808.99,511.541C3808.74,513.206 3808.71,514.442 3808.92,514.789C3809.4,515.6 3814.28,516.744 3815.79,516.401C3817.37,516.044 3819.67,513.969 3820.63,512.01C3821.04,511.238 3821.56,509.519 3821.83,508.214C3822.31,505.876 3822.28,505.818 3821.56,505.336ZM3742.01,338.158C3741.29,335.822 3741.29,335.822 3739.98,336.081C3738.64,336.368 3736.89,338.247 3736.07,340.222C3735.48,341.654 3735.41,342.487 3735.59,346.226C3735.72,348.657 3735.89,350.757 3735.96,350.916C3736.07,351.09 3737.17,351.001 3738.4,350.798C3742.7,349.967 3744.1,345.095 3742.01,338.158ZM3705.43,503.671C3704.67,503.045 3703.44,502.255 3702.65,501.916C3701.07,501.195 3697.94,500.889 3696.74,501.321L3695.95,501.629L3698.05,505.547C3699.73,508.598 3700.72,510.018 3702.78,512.153C3705.29,514.824 3705.46,514.941 3709.24,516.562C3711.37,517.476 3713.23,518.143 3713.33,518.015C3713.71,517.745 3711.75,512.291 3710.31,509.645C3708.9,507.014 3707.7,505.549 3705.43,503.671ZM3755.61,465.736C3755.37,463.693 3755.3,463.62 3754.44,463.51C3751.32,463.118 3748.43,465.071 3746.89,468.591C3746.06,470.436 3745.96,471.125 3745.99,475.107C3746.03,477.58 3746.16,479.752 3746.3,479.984C3746.65,480.606 3750.18,479.579 3751.97,478.319C3754.92,476.223 3756.26,471.623 3755.61,465.736ZM3782.68,527.204C3779.76,525.433 3778.9,525.065 3775.98,524.459C3773.51,523.958 3768.8,524.311 3768.8,525.001C3768.83,525.36 3771.07,528.13 3772.89,530.075C3778.76,536.348 3784.6,538.422 3789.2,535.869L3790.51,535.136L3789.72,533.977C3788.2,531.819 3784.74,528.476 3782.68,527.204ZM3662.5,391.622C3661.36,390.618 3659.92,389.568 3659.3,389.302L3658.2,388.787L3658.2,391.504C3658.2,396.421 3659.95,401.226 3663.12,404.868C3664.28,406.231 3669.47,410.872 3670.16,411.167C3670.5,411.314 3669.85,405.169 3669.26,402.806C3668.4,399.289 3665.21,394.037 3662.5,391.622ZM3793.98,539.859C3793.87,540.85 3793.7,542.631 3793.57,543.779L3793.32,545.962C3793.32,545.962 3789.92,550.324 3790.47,553.32C3791.71,560.19 3795.66,566.37 3800.64,569.241L3802.36,570.236L3802.36,566.312C3802.36,563.854 3802.15,561.523 3801.81,560.125C3801.53,558.929 3801.33,557.892 3801.4,557.835C3801.46,557.821 3802.77,558.597 3804.32,559.605L3807.1,561.446L3807.68,564.845C3808.3,568.733 3810.19,573.554 3812.01,576.103C3812.66,576.944 3813.97,578.496 3814.93,579.555L3816.71,581.4L3817.44,579.553C3818.91,575.918 3818.67,570.079 3816.82,564.755C3815.55,561.061 3810.98,553.538 3809.67,552.978C3809.36,552.845 3809.23,553.39 3809.23,554.597C3809.23,557.056 3808.95,557.326 3807.44,556.418C3806.31,555.76 3806.03,555.383 3805.11,552.915C3803.94,549.826 3801.57,546.265 3797.79,541.927C3794.15,537.777 3794.22,537.806 3793.98,539.859ZM3636.98,401.241C3634.71,399.405 3628.63,397.616 3627.53,398.438C3627.09,398.764 3630.28,404.274 3631.86,405.901C3634.92,409.067 3638.87,410.935 3642.03,410.652L3643.16,410.578L3641.68,407.659C3640.14,404.624 3638.62,402.552 3636.98,401.241ZM3691.35,488.14C3686.81,485.116 3681.52,483.967 3678.3,485.385L3676.65,486.101L3677.82,487.852C3679.46,490.328 3682.18,493.045 3684.58,494.594C3688.46,497.122 3692.38,497.466 3697.19,495.691L3698.73,495.104L3697.5,493.668C3695.47,491.289 3693.89,489.877 3691.35,488.14ZM3728.24,331.773C3727.48,330.716 3726.66,329.887 3726.38,329.899C3725.59,329.948 3724.49,333.358 3724.49,335.729C3724.49,338.403 3725.21,340.955 3726.66,343.472C3727.76,345.41 3730.95,349.109 3731.26,348.854C3731.33,348.754 3731.6,347.362 3731.81,345.769C3732.46,340.658 3731.19,335.714 3728.24,331.773ZM3668.06,439.765C3666.65,438.6 3661.57,436.332 3661.12,436.658C3660.85,436.885 3662.22,442.089 3663.18,444.4C3664.08,446.551 3666.34,450.197 3667.72,451.693C3669.5,453.58 3672.97,455.975 3675.14,456.774C3677.64,457.678 3677.64,457.634 3676.03,452.543C3674.21,446.759 3671.77,442.866 3668.06,439.765ZM3658.03,457.757C3656.04,455.91 3651.78,453.866 3649.93,453.89C3647.87,453.868 3645.94,455.026 3644.5,457.124C3643.71,458.251 3643.09,459.409 3643.09,459.711C3643.09,460.358 3647.01,462.901 3650.06,464.213C3653.84,465.834 3656.07,465.541 3659.92,462.837L3661.47,461.775L3660.61,460.544C3660.13,459.863 3658.96,458.586 3658.03,457.757ZM3759.18,582.068C3758.15,581.582 3757.19,581.17 3757.02,581.182C3756.61,581.221 3759.66,587.277 3761.66,590.374C3763.85,593.775 3767.36,597.565 3770.28,599.68C3771.44,600.483 3775.33,602.839 3778.93,604.904C3788.31,610.221 3804.38,619.88 3814,625.991C3821.21,630.595 3837.77,641.667 3840.24,643.548C3841.1,644.175 3841.1,644.175 3840.38,643.176C3836.91,638.453 3823.17,625.7 3810.5,615.431C3795.11,602.962 3773.74,589.094 3759.18,582.068ZM3770.38,544.956C3770.14,542.869 3770.11,542.854 3769.04,542.699C3766.22,542.223 3763.2,543.772 3762.1,546.19C3761.35,547.893 3760.87,551.266 3761.11,553.31C3761.31,554.864 3761.45,555.139 3762.27,555.493C3763.65,556.082 3765.88,555.962 3767.25,555.215C3769.49,554.06 3770.86,549.474 3770.38,544.956ZM3837.36,520.612C3831.83,516.557 3826.54,516.184 3821.35,519.522L3820.18,520.314L3821.52,521.363C3822.28,521.946 3823.07,522.501 3823.24,522.575C3823.45,522.663 3823.86,524.091 3824.2,525.791C3825.09,530.573 3827.05,534.475 3830.14,537.742C3831.52,539.237 3835.19,541.547 3836.53,541.777C3837.49,541.931 3837.53,541.86 3837.32,540.305C3837.05,538.333 3835.6,533.617 3834.88,532.272C3834.4,531.419 3834.61,531.421 3837.63,532.546C3840.51,533.654 3841.13,533.704 3843.2,533.295C3844.47,533.021 3845.56,532.544 3845.67,532.329C3845.84,531.627 3842.44,525.769 3840.62,523.651C3839.79,522.693 3838.32,521.326 3837.36,520.612ZM3835.78,502.295C3834.47,501.304 3832.86,500.439 3830.45,499.536C3827.53,498.413 3826.67,498.26 3824.78,498.527C3821.42,499.024 3821.38,499.181 3823.86,502.959C3825.03,504.711 3826.98,507.19 3828.22,508.497C3830.31,510.647 3830.69,510.895 3834.23,512.413C3838.32,514.124 3840.72,514.337 3842.78,513.151L3843.78,512.544L3842.54,510.331C3841,507.512 3838.18,504.19 3835.78,502.295ZM3672.77,487.842C3672.53,485.582 3672.59,485.612 3668.95,486.637C3665.18,487.732 3662.81,489.26 3661.64,491.346C3660.71,493.018 3660.44,493.159 3659.3,492.845C3657.79,492.455 3657.52,491.949 3657.52,489.491C3657.52,488.284 3657.38,487.621 3657.07,487.488C3655.76,486.928 3651.2,490.531 3649.93,493.134C3648.07,496.866 3647.83,502.498 3649.31,507.401L3650.03,509.867L3651.82,509.555C3652.78,509.321 3654.08,508.89 3654.73,508.609C3656.55,507.622 3658.44,504.422 3659.06,501.065L3659.65,498.167L3662.43,498.714C3663.97,499.033 3665.28,499.377 3665.35,499.45C3665.42,499.566 3665.21,500.426 3664.93,501.386C3664.59,502.489 3664.39,504.643 3664.39,507.101L3664.39,511.026L3666.1,511.504C3671.08,512.908 3675.03,510.118 3676.27,504.31C3676.82,501.785 3673.42,494.504 3673.42,494.504L3673.18,492.116C3673.04,490.849 3672.87,488.921 3672.77,487.842ZM3714.91,447.623C3712.02,444.487 3711.92,444.529 3711.61,448.105C3711.23,453.161 3712.09,457.066 3714.57,461.491C3715.97,463.993 3720.58,469.763 3720.95,469.494C3721.02,469.394 3721.13,467.325 3721.16,464.882C3721.23,459.391 3720.61,456.582 3718.41,452.576C3717.55,451 3715.97,448.77 3714.91,447.623ZM3817.85,525.953C3817.23,525.429 3815.37,524.461 3813.76,523.811C3811.25,522.821 3810.53,522.684 3808.78,523.054C3807.68,523.315 3806.72,523.765 3806.68,524.095C3806.58,524.956 3810.19,530.256 3812.42,532.508C3814.69,534.774 3819.43,537.283 3822.48,537.775L3824.44,538.141L3823.34,535.082C3822.14,531.634 3819.56,527.423 3817.85,525.953ZM3690.87,455.59C3688.33,453.378 3684.82,451.659 3681.94,451.197L3680.22,450.934L3681.35,454.31C3683.48,460.528 3687.19,465.527 3691.55,468.175C3693.51,469.317 3700,471.672 3700.41,471.331C3700.69,471.104 3699.04,466.86 3697.6,464.128C3695.85,460.789 3693.65,457.991 3690.87,455.59ZM3805.48,498.437C3805.07,498.131 3803.52,497.425 3802.12,496.864C3798.85,495.593 3796.24,495.895 3794.04,497.755C3792.5,499.119 3790.61,502.621 3790.23,504.917L3789.99,506.15L3791.85,506.946C3794.46,508.066 3798.17,508.58 3799.85,508.052C3801.98,507.413 3803.73,505.707 3804.86,503.261C3806.34,500.057 3806.48,499.124 3805.48,498.437ZM3745.41,398.267C3744.93,396.249 3744.17,395.925 3741.8,396.892C3739.54,397.817 3737.85,399.768 3736.82,402.603C3736.17,404.393 3736.07,405.513 3736.07,409.567C3736.1,412.256 3736.2,414.672 3736.34,414.989C3736.62,415.668 3739.95,414.941 3741.77,413.825C3745.55,411.522 3746.99,405.284 3745.41,398.267ZM3779.03,543.107C3777.28,541.277 3775.7,539.737 3775.53,539.749C3774.88,539.728 3774.57,542.528 3774.71,547.244C3774.88,552.622 3775.67,555.894 3777.9,560.302C3779.89,564.218 3783.88,568.559 3787.62,570.942L3788.96,571.775L3789.2,569.119C3789.99,560.229 3786.32,550.803 3779.03,543.107ZM3638.25,435.251C3634.4,432.306 3629.21,430.9 3626.26,432.004C3624.13,432.815 3621.32,435.272 3621.56,436.152C3622.04,437.911 3627.33,442.38 3630.59,443.78L3632.72,444.694L3631.38,447.44C3630.66,448.985 3629.97,450.803 3629.87,451.492C3629.7,452.626 3629.76,452.828 3630.66,453.426C3632.13,454.448 3635.71,455.205 3637.42,454.907C3639.72,454.472 3641.92,452.137 3642.75,449.127C3643.12,447.737 3643.43,446.36 3643.43,446.058C3643.43,445.757 3644.09,445.692 3645.08,445.947C3646.01,446.215 3646.87,446.325 3646.97,446.24C3647.28,445.984 3643.54,440.496 3641.68,438.407C3640.82,437.478 3639.28,436.038 3638.25,435.251ZM3673.66,333.191C3672.8,332.435 3672.01,331.966 3671.87,332.08C3671.74,332.193 3671.46,333.197 3671.26,334.359C3670.64,338.277 3671.7,342.615 3674.21,346.451C3675.55,348.535 3678.78,352.077 3679.09,351.864C3679.19,351.736 3679.29,349.581 3679.29,347.037C3679.33,342.739 3679.26,342.278 3678.37,339.997C3677.26,337.111 3675.79,335.011 3673.66,333.191ZM3761.21,371.971C3760.83,371.205 3760.32,370.509 3760.04,370.391C3759.8,370.288 3758.84,370.738 3757.88,371.403C3755.51,373.06 3754.58,375.465 3754.58,379.907C3754.58,383.875 3755.47,388.7 3756.26,389.039C3756.54,389.157 3757.84,388.423 3759.11,387.33C3762.38,384.719 3763.2,381.623 3762.24,375.69C3762.03,374.394 3761.59,372.736 3761.21,371.971ZM3652.74,362.294C3651.88,361.753 3650.47,361.105 3649.62,360.866C3647.8,360.301 3644.4,360.61 3643.57,361.42C3643.06,361.932 3643.06,362.062 3643.98,363.451C3646.49,367.331 3650.1,369.956 3652.85,369.971C3653.7,369.952 3655.39,369.553 3656.52,369.047C3658.44,368.148 3658.55,368.019 3657.96,367.208C3656.9,365.673 3654.39,363.346 3652.74,362.294ZM3831.59,468.154C3826.19,464.287 3819.94,463.933 3816.03,467.255C3814.82,468.335 3814.76,468.478 3815.44,468.773C3815.86,468.95 3817.78,470.594 3819.7,472.412C3822.96,475.451 3823.48,475.844 3826.33,477.068C3828.74,478.1 3829.87,478.37 3831.38,478.243C3833.58,478.108 3838.01,475.956 3838.01,475.007C3838.01,474.144 3834.06,469.905 3831.59,468.154ZM3785.56,495.624C3784.94,495.186 3783.16,494.247 3781.64,493.555C3776.66,491.332 3772.68,491.821 3769.73,494.996C3767.46,497.43 3766.53,499.102 3767.08,499.769C3767.77,500.624 3772.99,503.296 3775.63,504.215C3779.89,505.655 3783.84,503.771 3786.18,499.167C3786.73,498.109 3787.04,497.034 3786.93,496.817C3786.8,496.629 3786.18,496.062 3785.56,495.624ZM3749.74,377.872L3749.98,374.999L3747.51,374.197C3743.93,373.052 3741.12,373.612 3738.26,376.054C3736.68,377.403 3735.69,378.7 3734.97,380.417C3734.38,381.762 3733.84,382.863 3733.7,382.805C3733.56,382.746 3732.94,381.187 3732.32,379.282C3731.57,377.018 3730.37,374.475 3728.61,371.524C3725.66,366.504 3723.57,364.311 3719.62,362.228L3717.28,360.967L3717.49,363.815C3717.9,369.857 3718.93,373.361 3721.47,377.342C3723.05,379.831 3726.66,383.664 3727.96,384.224C3729.16,384.74 3729.64,385.55 3731.29,389.751C3733.7,395.958 3733.42,395.753 3735.17,393.012C3736,391.727 3736.93,390.184 3737.24,389.627C3737.68,388.741 3738.09,388.659 3739.43,389.018C3741.32,389.484 3744.21,388.997 3745.55,387.976C3747.95,386.162 3749.29,382.898 3749.74,377.872ZM3710.07,561.378C3710.07,560.343 3694.2,555.431 3683.1,553.041C3668.78,549.914 3654.29,548.782 3640.34,549.612C3635.74,549.879 3626.95,551.324 3626.95,551.755C3626.95,551.927 3627.84,552.224 3628.91,552.336C3640.38,553.896 3665.18,559.535 3683.28,564.716C3697.94,568.94 3700.76,569.156 3705.12,566.457C3706.56,565.567 3710.07,561.938 3710.07,561.378ZM3652.54,344.783C3650.3,342.79 3649.86,342.857 3649.51,345.125C3648.86,349.761 3650.61,354.825 3654.15,358.543C3655.32,359.777 3656.45,360.867 3656.66,360.956C3657.69,361.398 3657.83,354.772 3656.86,351.772C3656.04,349.176 3654.25,346.296 3652.54,344.783ZM3781.47,442.12C3779.07,440.484 3775.77,439.501 3773.71,439.867C3771.17,440.372 3769.21,442.852 3768.49,446.467L3768.18,448.189L3771.72,449.491C3775.88,451.059 3778.24,450.912 3780.27,448.892C3781.58,447.684 3783.5,444.068 3783.16,443.489C3783.05,443.316 3782.3,442.689 3781.47,442.12ZM3806.17,419.814C3800.61,416.563 3796.93,416.625 3793.6,419.982C3791.95,421.56 3790.71,423.574 3791.06,423.937C3791.19,424.125 3792.36,424.928 3793.63,425.776C3799.71,429.808 3805.93,427.947 3807.06,421.749C3807.3,420.559 3807.27,420.458 3806.17,419.814ZM3712.61,329.594C3709.86,327.38 3709.38,327.26 3709.38,328.942C3709.38,329.718 3709.59,331.445 3709.86,332.814L3710.31,335.248L3709.17,334.762C3707.83,334.187 3704.95,333.682 3704.26,333.904C3703.92,334.059 3704.09,334.736 3705.19,337.192C3708.04,343.763 3710.99,347.402 3716.63,351.501C3718.62,352.96 3720.61,354.721 3721.4,355.706C3722.16,356.635 3722.84,357.447 3722.95,357.491C3723.22,357.609 3723.12,352.821 3722.78,349.439C3721.99,342.071 3717.73,333.774 3712.61,329.594ZM3804.62,397.588C3804.35,396.909 3803.7,396.888 3801.84,397.386C3799.88,397.969 3798.2,399.791 3797.62,402.042C3797.17,403.748 3797.38,409.83 3797.93,411.791L3798.34,413.176L3799.71,412.86C3803.11,412.119 3805.14,409.453 3805.45,405.359C3805.62,403.363 3805.14,398.973 3804.62,397.588ZM3783.88,375.058C3783.43,373.27 3782.74,372.846 3780.89,373.258C3779,373.655 3777.42,375.133 3776.42,377.422C3775.7,379.01 3775.53,380.058 3775.57,382.66C3775.57,384.428 3775.74,386.486 3775.98,387.279L3776.36,388.605L3778.66,388.127C3781.37,387.566 3782.57,386.659 3783.53,384.355C3784.32,382.494 3784.5,377.609 3783.88,375.058ZM3757.71,350.888L3757.91,348.217L3756.5,347.871C3752.28,346.748 3747.95,349.204 3745.82,353.896C3744.69,356.428 3744.62,356.959 3744.48,361.644L3744.31,366.702L3745.62,366.184C3746.89,365.608 3748.84,365.586 3750.01,366.087C3751.35,366.662 3754.99,366.327 3757.16,365.444C3758.43,364.955 3760.04,363.793 3760.8,362.867C3762.24,361.114 3763.1,359.628 3762.89,359.324C3762.31,358.47 3760.93,357.363 3759.18,356.352C3757.22,355.296 3757.09,355.108 3757.29,354.377C3757.4,353.904 3757.6,352.354 3757.71,350.888ZM3686.3,352.588C3684.89,351.078 3684.07,350.422 3683.83,350.621C3683.65,350.763 3683.48,353.061 3683.48,355.735C3683.45,361.068 3683.89,362.984 3685.95,366.499C3687.02,368.293 3691.11,372.936 3691.38,372.709C3691.49,372.624 3691.66,370.757 3691.76,368.559C3692.1,361.677 3690.49,357.017 3686.3,352.588ZM3727.76,350.585C3727.38,350.164 3726.9,349.785 3726.72,349.797C3726.07,349.733 3725.52,351.524 3725.52,353.81C3725.52,357.863 3726.55,360.16 3731.91,368.066L3733.59,370.556L3736.51,368.704C3739.91,366.584 3741.36,364.572 3741.6,361.657C3741.77,359.143 3741.15,356.247 3740.36,355.908C3739.23,355.421 3735.66,356.778 3734.56,358.074L3733.49,359.386L3732.67,357.522C3731.98,355.934 3729.99,353.095 3727.76,350.585ZM3795.45,404.391C3795.21,402.476 3795.14,402.274 3794.46,402.238C3791.47,402.12 3789.44,403.277 3788.48,405.754C3788,407.057 3787.86,413.251 3788.31,414.348C3788.65,415.143 3790.92,415.253 3792.53,414.523C3794.8,413.425 3796,409.284 3795.45,404.391ZM3724.87,389.323C3724.01,388.265 3723.05,387.335 3722.78,387.26C3721.88,387.092 3721.33,389.918 3721.47,394.16C3721.64,398.978 3722.36,401.53 3724.6,405.205C3726.07,407.607 3730.09,412.738 3730.71,413.003C3731.22,413.224 3731.47,405.091 3731.02,402.398C3730.3,397.862 3728.2,393.384 3724.87,389.323ZM3703.68,391.7C3701.86,390.315 3697.01,387.978 3697.01,388.495C3697.01,388.711 3697.26,390.237 3697.53,391.994C3698.11,395.781 3699.69,400.34 3701.41,403.147C3703.03,405.824 3706.18,409.25 3708.14,410.435C3709.55,411.298 3709.69,411.529 3710.24,413.49C3711.03,416.503 3713.12,420.162 3715.32,422.485C3716.39,423.589 3717.35,424.519 3717.45,424.564C3717.83,424.726 3717.24,415.893 3716.7,413.07C3715.97,409.181 3714.6,405.702 3712.13,401.579C3709.79,397.644 3706.74,394.09 3703.68,391.7ZM3663.32,411.942C3660.92,410.091 3659.95,409.678 3659.71,410.308C3659.61,410.609 3659.68,412.191 3659.85,413.774C3660.2,416.682 3660.88,419.133 3662.29,422.626L3663.05,424.46L3661.05,422.355C3658.2,419.32 3654.84,417.315 3651.82,416.837C3648.72,416.33 3646.01,416.416 3646.01,417.106C3646.01,417.365 3646.83,419.098 3647.83,420.949C3649.1,423.349 3650.3,424.986 3651.92,426.714C3654.15,429.052 3654.39,429.198 3658.41,430.923L3662.6,432.721L3665.31,432.117L3668.03,431.557L3670.36,434.629C3673.14,438.238 3675.75,440.695 3678.81,442.524C3681.01,443.813 3684.99,445.264 3684.99,444.746C3684.99,444.617 3683.41,442.429 3681.49,439.965C3677.06,434.269 3675.51,431.708 3673.66,426.858C3670.95,419.915 3667.82,415.383 3663.32,411.942ZM3783.5,393.741C3783.26,392.948 3783.16,392.904 3781.64,392.945C3779.62,392.981 3777.21,394.58 3776.29,396.468C3775.22,398.684 3775.02,406.272 3775.98,408.626C3776.32,409.463 3779.76,408.651 3781.37,407.317C3783.43,405.571 3783.74,404.582 3783.74,399.321C3783.74,396.691 3783.64,394.188 3783.5,393.741ZM3745.2,421.682C3744.86,421.405 3744.07,421.023 3743.42,420.743C3742.32,420.357 3742.25,420.414 3741.53,423.037C3739.74,429.343 3736.24,430.988 3731.64,427.632C3730.26,426.612 3729.47,425.669 3728.24,423.586C3726.86,421.271 3726.45,420.189 3725.69,416.716L3724.77,412.61L3723.5,412.064C3721.37,411.15 3721.3,411.336 3721.92,416.346C3722.22,418.936 3723.01,422.898 3723.84,425.968C3726.21,434.662 3728.24,444.286 3727.69,444.05C3727.62,444.02 3726.04,442.394 3724.22,440.405C3722.4,438.459 3718.76,434.654 3716.18,432.04C3712.61,428.393 3710.99,426.493 3709.59,424.207C3707.97,421.574 3706.36,417.733 3705.81,415.125C3705.67,414.505 3705.26,414.156 3704.09,413.655C3703.23,413.286 3702.48,413.135 3702.37,413.263C3702.06,413.777 3703.13,420.444 3703.88,422.666C3705.91,428.495 3707.97,431.665 3713.67,437.734C3715.36,439.534 3717.66,442.204 3718.76,443.711C3722.4,448.68 3725.39,455.957 3726.38,462.292C3727,466.223 3727.03,481.677 3726.42,493.098C3726.04,500.698 3726,500.856 3725.59,498.566C3724.42,492.329 3720.47,482.915 3713.16,468.865C3707.15,457.402 3702.92,451.147 3697.53,445.728C3693.41,441.63 3685.75,435.971 3682.31,434.497L3680.8,433.849L3681.63,435.41C3683.24,438.604 3686.99,443.488 3691.69,448.526C3697.81,455.074 3699.69,457.481 3702.72,462.702C3705.5,467.518 3707.22,471.447 3709.07,477.202C3710.44,481.543 3711.92,488.172 3711.44,487.965C3711.3,487.906 3708.93,486.199 3706.18,484.201C3698.56,478.643 3693.82,475.703 3685.37,471.387C3673.97,465.545 3670.84,463.082 3667.06,456.933L3665.07,453.706L3663.87,454.354C3663.22,454.721 3662.67,455.132 3662.67,455.262C3662.67,455.391 3663.12,456.618 3663.66,457.931C3664.83,460.675 3667.03,464.422 3668.95,466.8L3670.22,468.423L3668.27,469.308C3664.8,470.795 3659.82,472.194 3657.48,472.313C3656.24,472.343 3654.08,472.104 3652.67,471.758C3650.41,471.174 3649.65,470.763 3645.84,468.135C3638.59,463.171 3634.5,462.409 3630.62,465.314L3628.53,466.916L3630.79,469.485C3633.03,471.995 3636.63,474.794 3638.87,475.795C3639.48,476.06 3640,476.324 3640,476.368C3640,476.454 3639.76,477.342 3639.48,478.389C3638.9,480.596 3638.8,485.08 3639.31,485.69C3639.83,486.342 3642.99,486.663 3644.81,486.323C3647.49,485.748 3650.99,481.688 3650.99,479.057C3650.99,478.712 3651.82,478.678 3653.29,478.967C3657,479.783 3660.16,479.629 3666.17,478.327C3675.31,476.426 3680.08,476.707 3686.88,479.582C3690.49,481.13 3695.78,484.263 3698.42,486.433C3705.67,492.346 3712.57,501.389 3716.28,509.752C3717.9,513.377 3719.55,518.871 3720.23,523.004C3721.13,528.045 3721.13,544.432 3720.27,550.834C3718.48,564.515 3713.71,572.557 3705.81,575.291C3701.14,576.909 3696.84,576.575 3682.07,573.472C3670.77,571.124 3657.24,569.24 3656.49,569.908C3656.38,569.993 3657.93,570.613 3659.92,571.339C3661.91,572.021 3669.47,574.79 3676.75,577.44C3699.59,585.733 3702.44,586.611 3707.8,587.056C3713.5,587.476 3718.76,585.721 3721.74,582.389C3723.94,580.011 3726.38,574.934 3726.97,571.821C3727.17,570.486 3727.48,569.455 3727.65,569.528C3728.31,569.808 3729.13,575.251 3729.13,579.218C3729.13,582.927 3729.03,583.53 3728.06,585.661C3725.9,590.382 3722.53,592.905 3716.87,594.053C3710.14,595.39 3706.22,594.788 3684.55,588.98C3683.24,588.592 3682.11,588.364 3682.04,588.464C3681.83,588.635 3684.68,590.246 3691.28,593.637C3699.14,597.659 3718.07,605.436 3722.43,606.402C3728.48,607.746 3735.83,607.666 3739.33,606.15C3740.29,605.787 3741.18,605.523 3741.36,605.597C3741.53,605.671 3742.46,606.716 3743.38,607.933C3749.19,615.426 3757.71,622.014 3767.77,626.721C3773.33,629.368 3783.84,633.188 3785.84,633.353L3786.83,633.436L3785.46,632.501C3773.78,624.773 3769.8,621.597 3766.12,617.173C3763.54,614.041 3762.45,612.534 3762.65,612.45C3762.82,612.351 3771.48,616.54 3780.31,621.018C3805.89,633.983 3811.63,636.79 3811.36,636.284C3811.01,635.748 3800.26,627.814 3794.56,623.944C3791.26,621.71 3784.84,617.487 3780.31,614.55C3771.38,608.82 3767.05,605.626 3764.23,602.649C3756.23,594.126 3750.32,581.758 3747.88,568.335C3746.54,561.075 3746.34,558.098 3746.34,547.575C3746.34,537.829 3746.41,537.039 3747.23,533.468C3748.64,527.475 3750.39,524.431 3754.07,521.48C3756.92,519.211 3758.98,518.241 3762.79,517.462C3768.66,516.231 3773.71,516.845 3779.96,519.527C3786.97,522.534 3791.88,526.324 3800.4,535.37C3806.65,542.02 3809.53,544.682 3813.55,547.527C3815.92,549.191 3816.23,549.54 3816.4,550.648C3816.82,552.895 3818.19,556.417 3819.53,558.588C3821.11,561.163 3824.78,564.983 3826.67,565.966L3828.05,566.685L3828.15,564.444C3828.25,562.59 3827.74,559.135 3826.98,556.741C3826.91,556.409 3827.36,556.515 3828.22,556.969C3830.18,558.068 3834.3,558.543 3836.36,557.961C3837.32,557.684 3838.21,557.291 3838.32,557.12C3838.66,556.62 3835.43,551.569 3833.51,549.622C3832.51,548.591 3830.62,547.091 3829.32,546.229C3827.22,544.898 3826.4,544.588 3823.51,543.996C3816.92,542.719 3816.92,542.719 3814.07,540.848C3810.81,538.758 3806.79,534.662 3801.12,527.702L3797.24,522.931L3798.75,522.415C3799.57,522.122 3800.78,521.344 3801.39,520.704C3802.53,519.595 3804.52,516.784 3804.52,516.31C3804.52,516.137 3803.97,515.254 3803.28,514.313L3802.08,512.546L3800.06,514.092C3796.45,516.899 3792.91,516.632 3782.02,512.908C3778.04,511.5 3773.64,510.131 3772.23,509.785C3768.7,508.871 3758.87,507.329 3757.09,507.339C3756.3,507.345 3755.58,507.251 3755.47,507.077C3755.16,506.6 3755.99,503.072 3757.12,499.893C3760.08,491.544 3766.91,485.68 3775.02,484.501C3779.28,483.913 3785.97,480.707 3785.97,479.327C3785.97,478.551 3780.34,476.823 3776.66,476.454C3770.59,475.785 3764.58,477.13 3760.45,480.105C3759.22,481.041 3756.68,483.4 3754.82,485.364C3750.36,490.219 3745.34,494.277 3743.11,494.828C3742.11,495.047 3741.22,495.138 3741.15,495.023C3741.08,494.95 3740.84,492.518 3740.64,489.67C3740.09,482.663 3740.36,469.973 3741.12,466.847C3742.83,459.865 3746.75,455.939 3753.34,454.629C3759.66,453.374 3762.89,450.102 3764.54,443.263C3765.16,440.725 3765.16,440.768 3764.23,439.939C3761.83,437.786 3761.72,437.785 3760.87,440.004C3760.42,441.235 3759.32,442.833 3758.19,443.856C3756.61,445.335 3755.68,445.713 3752.35,446.31C3750.15,446.66 3746.47,447.326 3744.17,447.761C3741.84,448.225 3739.85,448.405 3739.71,448.174C3739.33,447.537 3740.88,441.171 3742.7,435.613C3744.41,430.485 3745.24,427.303 3745.62,424.058C3745.79,422.45 3745.72,422.075 3745.2,421.682ZM3795.83,386.483C3795.52,384.884 3794.66,384.473 3792.29,384.836C3788.79,385.402 3787.04,389.481 3787.76,395.526C3787.93,396.979 3788.1,398.217 3788.17,398.29C3788.45,398.753 3792.22,397.916 3793.36,397.152C3795.25,395.893 3796.04,393.903 3796.07,390.597C3796.07,389.045 3795.97,387.232 3795.83,386.483ZM3770.72,393.778C3770.04,390.637 3769.73,390.375 3767.15,391.167C3761.93,392.678 3759.73,398.074 3760.59,407.197C3760.8,409.614 3761.07,411.845 3761.21,412.163C3761.55,413.13 3766.26,411.527 3768.01,409.906C3770.45,407.632 3770.96,406.128 3771.14,400.984C3771.24,397.621 3771.14,395.766 3770.72,393.778ZM3640.24,418.382C3639.04,417.434 3637.36,416.54 3635.12,415.711C3632.07,414.528 3631.52,414.422 3629.25,414.872C3627.84,415.13 3625.95,415.915 3625.02,416.595L3623.34,417.857L3624.2,419.045C3625.51,420.899 3627.81,423.137 3629.76,424.495C3632.31,426.275 3637.08,427.936 3638.97,427.669C3640.51,427.469 3645.49,424.561 3645.49,423.828C3645.49,423.31 3642.37,420.029 3640.24,418.382ZM3767.84,530.453C3763.34,527.013 3759.15,526.81 3756.4,529.943C3755.3,531.197 3753.48,534.814 3753.76,535.277C3754.17,535.928 3759.25,538.282 3761.07,538.632C3764.37,539.271 3766.39,538.631 3768.94,536.143L3771.24,533.939L3770.31,532.808C3769.83,532.17 3768.7,531.123 3767.84,530.453Z"/>
            </g>
        </g>
    </g>
</svg>
