<?xml version="1.0" encoding="UTF-8" standalone="no"?>
<!DOCTYPE svg PUBLIC "-//W3C//DTD SVG 1.1//EN" "http://www.w3.org/Graphics/SVG/1.1/DTD/svg11.dtd">
<svg width="100%" height="100%" viewBox="0 0 1080 1080" version="1.1" xmlns="http://www.w3.org/2000/svg" xmlns:xlink="http://www.w3.org/1999/xlink" xml:space="preserve" xmlns:serif="http://www.serif.com/" style="fill-rule:evenodd;clip-rule:evenodd;stroke-linecap:round;stroke-linejoin:round;stroke-miterlimit:1.5;">
    <g transform="matrix(1,0,0,1,-3390,0)">
        <g id="Tree">
        </g>
        <rect id="Artboard4" x="3390" y="0" width="1080" height="1080" style="fill:none;"/>
        <g id="Artboard41" serif:id="Artboard4">
            <g id="box" transform="matrix(1.47231,0,0,1.47231,-1806.69,-49.0023)">
                <g transform="matrix(0.466715,-0.493696,1.76239,1.66607,1929.61,1790.11)">
                    <path d="M3823.79,102.068L4038.75,235.098L3554.21,180.635L3349.12,38.84L3823.79,102.068Z" style="fill:none;stroke:black;stroke-width:14.49px;"/>
                </g>
                <g transform="matrix(0.84593,0.32742,0,0.986667,510.761,-1303.13)">
                    <rect x="3603.73" y="329.644" width="407.453" height="407.453" style="fill:none;stroke:black;stroke-width:23.36px;"/>
                </g>
                <g transform="matrix(0.800837,-0.346796,0,1,1017.89,1249.76)">
                    <path d="M4011.18,329.644L4011.18,737.098L3603.73,737.098L3604.23,338.247L4011.18,329.644Z" style="fill:none;stroke:black;stroke-width:35.32px;"/>
                </g>
                <g transform="matrix(0.679205,0,0,0.679205,1397.4,-42.1137)">
                    <path d="M3434.04,273.358C3416.05,266.331 3486.42,226.441 3504.41,233.468L3957.6,405.229C3970.93,410.433 3979.74,423.227 3979.87,437.534L3981.78,621.376C3981.94,640.692 3990.64,689.576 3947.08,698.671C3928.17,702.619 3911.95,683.285 3911.78,663.969L3910.07,461.816L3434.04,273.358Z"/>
                </g>
            </g>
            <g id="Tree1" serif:id="Tree" transform="matrix(-0.50569,-0.217016,0,0.634932,5091.84,932.505)">
                <g transform="matrix(0.1,0,0,-0.1,2260,1024)">
                    <path d="M4870,8468C4809,8328 4850,8201 4975,8139C5011,8122 5043,8109 5046,8112C5048,8115 5053,8162 5057,8217C5062,8302 5060,8322 5043,8361C5019,8415 4968,8476 4929,8496C4891,8515 4891,8515 4870,8468Z" style="fill-rule:nonzero;"/>
                </g>
                <g transform="matrix(0.1,0,0,-0.1,2260,1024)">
                    <path d="M5271,8479C5185,8417 5148,8315 5167,8190C5173,8151 5181,8116 5183,8113C5192,8104 5285,8158 5317,8192C5359,8236 5380,8288 5380,8350C5380,8405 5348,8495 5325,8504C5317,8507 5293,8496 5271,8479Z" style="fill-rule:nonzero;"/>
                </g>
                <g transform="matrix(0.1,0,0,-0.1,2260,1024)">
                    <path d="M4413,8329C4416,8294 4422,8256 4425,8244C4431,8225 4427,8222 4370,8217C4319,8211 4279,8199 4262,8185C4256,8180 4281,8137 4323,8082C4345,8053 4392,8010 4429,7986C4492,7944 4598,7900 4637,7900C4671,7900 4728,7880 4765,7854L4803,7829L4798,7948C4794,8058 4792,8071 4759,8141C4697,8271 4571,8371 4448,8387L4407,8393L4413,8329Z" style="fill-rule:nonzero;"/>
                </g>
                <g transform="matrix(0.1,0,0,-0.1,2260,1024)">
                    <path d="M5726,8374C5577,8328 5453,8178 5430,8015C5420,7940 5417,7830 5425,7830C5428,7830 5448,7842 5470,7856C5493,7871 5551,7892 5609,7906C5773,7945 5859,8000 5942,8124C5974,8170 5979,8184 5969,8191C5949,8203 5865,8220 5826,8220L5793,8220L5806,8272C5814,8301 5820,8339 5820,8357C5820,8396 5806,8398 5726,8374Z" style="fill-rule:nonzero;"/>
                </g>
                <g transform="matrix(0.1,0,0,-0.1,2260,1024)">
                    <path d="M3931,8193C3912,8144 3899,8057 3906,8010C3927,7852 3988,7757 4117,7682L4169,7651L4177,7718C4181,7755 4185,7832 4185,7890C4185,7985 4182,8000 4158,8046C4120,8118 4085,8157 4026,8190C3963,8227 3945,8227 3931,8193Z" style="fill-rule:nonzero;"/>
                </g>
                <g transform="matrix(0.1,0,0,-0.1,2260,1024)">
                    <path d="M6212,8199C6156,8171 6085,8088 6059,8020C6039,7969 6038,7952 6044,7810C6048,7725 6053,7654 6055,7652C6065,7642 6203,7745 6238,7789C6315,7886 6343,8044 6304,8166C6285,8227 6276,8230 6212,8199Z" style="fill-rule:nonzero;"/>
                </g>
                <g transform="matrix(0.1,0,0,-0.1,2260,1024)">
                    <path d="M3651,8029C3633,7976 3638,7861 3661,7810C3689,7747 3724,7714 3803,7674L3870,7640L3881,7667C3888,7683 3893,7729 3893,7770C3894,7830 3889,7856 3868,7900C3839,7963 3793,8013 3738,8041C3684,8069 3664,8066 3651,8029Z" style="fill-rule:nonzero;"/>
                </g>
                <g transform="matrix(0.1,0,0,-0.1,2260,1024)">
                    <path d="M6492,8039C6427,8006 6373,7938 6349,7858C6330,7797 6329,7780 6338,7718C6344,7680 6351,7646 6354,7643C6365,7632 6473,7696 6515,7737C6568,7789 6590,7851 6589,7939C6587,8061 6571,8078 6492,8039Z" style="fill-rule:nonzero;"/>
                </g>
                <g transform="matrix(0.1,0,0,-0.1,2260,1024)">
                    <path d="M5285,8038C5220,8002 5162,7956 5142,7926L5118,7891L5087,7932C5055,7973 4951,8040 4918,8040C4895,8040 4877,7979 4882,7919C4889,7849 4931,7788 5030,7705L5115,7633L5164,7674C5320,7804 5350,7847 5350,7941C5350,7994 5334,8041 5315,8046C5310,8048 5296,8044 5285,8038Z" style="fill-rule:nonzero;"/>
                </g>
                <g transform="matrix(0.1,0,0,-0.1,2260,1024)">
                    <path d="M6860,7903C6798,7882 6755,7848 6723,7792C6697,7748 6695,7738 6696,7638C6696,7579 6699,7528 6702,7524C6711,7516 6805,7566 6844,7601C6917,7665 6948,7755 6930,7852C6924,7881 6916,7907 6912,7911C6908,7915 6885,7912 6860,7903Z" style="fill-rule:nonzero;"/>
                </g>
                <g transform="matrix(0.1,0,0,-0.1,2260,1024)">
                    <path d="M3303,7883C3299,7867 3296,7826 3296,7790C3297,7713 3320,7659 3375,7611C3408,7582 3518,7525 3526,7533C3528,7534 3533,7561 3538,7593C3559,7726 3508,7838 3406,7886C3337,7918 3312,7917 3303,7883Z" style="fill-rule:nonzero;"/>
                </g>
                <g transform="matrix(0.1,0,0,-0.1,2260,1024)">
                    <path d="M4311,7875C4300,7861 4287,7827 4281,7799C4253,7671 4277,7591 4372,7498C4409,7460 4447,7430 4455,7430C4478,7430 4504,7533 4504,7625C4504,7728 4477,7793 4408,7855C4380,7880 4352,7900 4345,7900C4337,7900 4322,7889 4311,7875Z" style="fill-rule:nonzero;"/>
                </g>
                <g transform="matrix(0.1,0,0,-0.1,2260,1024)">
                    <path d="M5833,7867C5748,7801 5715,7720 5723,7600C5727,7541 5749,7454 5766,7432C5771,7425 5846,7479 5877,7511C5929,7566 5950,7623 5950,7716C5950,7782 5946,7805 5924,7848C5910,7877 5893,7900 5887,7900C5880,7900 5856,7885 5833,7867Z" style="fill-rule:nonzero;"/>
                </g>
                <g transform="matrix(0.1,0,0,-0.1,2260,1024)">
                    <path d="M3047,7713C3032,7686 3018,7589 3023,7541C3032,7443 3091,7361 3190,7310L3230,7289L3242,7317C3258,7357 3264,7496 3251,7540C3234,7598 3185,7657 3128,7690C3074,7720 3055,7726 3047,7713Z" style="fill-rule:nonzero;"/>
                </g>
                <g transform="matrix(0.1,0,0,-0.1,2260,1024)">
                    <path d="M7098,7691C6985,7619 6938,7491 6974,7350C6983,7315 6992,7284 6994,7282C6996,7280 7018,7291 7042,7305C7152,7374 7200,7451 7200,7563C7200,7652 7183,7720 7161,7720C7152,7720 7123,7707 7098,7691Z" style="fill-rule:nonzero;"/>
                </g>
                <g transform="matrix(0.1,0,0,-0.1,2260,1024)">
                    <path d="M4645,7624C4658,7503 4697,7414 4767,7348C4806,7311 4890,7271 4945,7263C4984,7258 4996,7252 5009,7227C5018,7211 5045,7166 5069,7128C5120,7047 5112,7045 5182,7165C5230,7246 5244,7260 5279,7260C5317,7260 5422,7313 5468,7355C5542,7422 5572,7493 5584,7629L5590,7693L5522,7687C5407,7678 5346,7648 5260,7561C5209,7510 5174,7463 5152,7418C5134,7380 5116,7350 5112,7350C5108,7350 5092,7381 5075,7418C5054,7465 5025,7505 4979,7552C4896,7637 4814,7678 4710,7687L4638,7693L4645,7624Z" style="fill-rule:nonzero;"/>
                </g>
                <g transform="matrix(0.1,0,0,-0.1,2260,1024)">
                    <path d="M3662,7592C3658,7583 3655,7526 3655,7465C3655,7343 3664,7317 3724,7256C3771,7209 3871,7156 3881,7172C3909,7217 3903,7395 3872,7457C3845,7510 3775,7571 3716,7592C3672,7608 3669,7608 3662,7592Z" style="fill-rule:nonzero;"/>
                </g>
                <g transform="matrix(0.1,0,0,-0.1,2260,1024)">
                    <path d="M6492,7579C6370,7518 6323,7426 6333,7263C6336,7211 6341,7166 6344,7163C6352,7155 6471,7222 6502,7253C6562,7314 6575,7354 6574,7478C6574,7540 6569,7595 6564,7600C6557,7607 6533,7600 6492,7579Z" style="fill-rule:nonzero;"/>
                </g>
                <g transform="matrix(0.1,0,0,-0.1,2260,1024)">
                    <path d="M4034,7464C4022,7422 4019,7380 4022,7301C4027,7180 4042,7140 4113,7063C4164,7008 4301,6924 4311,6943C4315,6949 4323,6998 4329,7052C4354,7255 4290,7402 4138,7489C4063,7533 4054,7530 4034,7464Z" style="fill-rule:nonzero;"/>
                </g>
                <g transform="matrix(0.1,0,0,-0.1,2260,1024)">
                    <path d="M6102,7495C6034,7464 5955,7384 5924,7315C5909,7282 5897,7233 5893,7191C5887,7124 5904,6976 5920,6950C5926,6941 5943,6946 5990,6971C6077,7017 6144,7081 6177,7148C6201,7197 6205,7219 6208,7305C6211,7416 6194,7513 6170,7517C6162,7519 6131,7509 6102,7495Z" style="fill-rule:nonzero;"/>
                </g>
                <g transform="matrix(0.1,0,0,-0.1,2260,1024)">
                    <path d="M3314,7464C3298,7356 3333,7248 3399,7200C3446,7167 3512,7147 3522,7162C3535,7183 3531,7328 3517,7363C3489,7430 3430,7477 3343,7504C3323,7510 3321,7506 3314,7464Z" style="fill-rule:nonzero;"/>
                </g>
                <g transform="matrix(0.1,0,0,-0.1,2260,1024)">
                    <path d="M6846,7484C6733,7443 6682,7348 6697,7207C6704,7140 6710,7138 6790,7178C6887,7227 6929,7316 6915,7440C6907,7505 6906,7506 6846,7484Z" style="fill-rule:nonzero;"/>
                </g>
                <g transform="matrix(0.1,0,0,-0.1,2260,1024)">
                    <path d="M2670,7415C2643,7344 2668,7229 2723,7172C2765,7128 2870,7074 2880,7090C2884,7097 2891,7132 2894,7169C2908,7307 2841,7402 2708,7435C2684,7441 2679,7438 2670,7415Z" style="fill-rule:nonzero;"/>
                </g>
                <g transform="matrix(0.1,0,0,-0.1,2260,1024)">
                    <path d="M7475,7424C7425,7406 7373,7357 7349,7305C7321,7245 7325,7090 7355,7090C7361,7090 7394,7104 7428,7121C7531,7172 7582,7272 7563,7386C7553,7442 7540,7448 7475,7424Z" style="fill-rule:nonzero;"/>
                </g>
                <g transform="matrix(0.1,0,0,-0.1,2260,1024)">
                    <path d="M4527,7348C4485,7296 4473,7273 4454,7212C4424,7113 4443,6991 4500,6913C4527,6876 4611,6810 4631,6810C4635,6810 4641,6831 4645,6858C4648,6884 4660,6939 4671,6982C4694,7074 4695,7178 4675,7248C4658,7304 4603,7383 4578,7388C4569,7390 4547,7373 4527,7348Z" style="fill-rule:nonzero;"/>
                </g>
                <g transform="matrix(0.1,0,0,-0.1,2260,1024)">
                    <path d="M5611,7351C5540,7262 5520,7171 5544,7045C5565,6934 5590,6816 5595,6812C5603,6803 5671,6854 5708,6895C5810,7011 5802,7226 5690,7353C5673,7373 5654,7390 5650,7390C5645,7390 5628,7372 5611,7351Z" style="fill-rule:nonzero;"/>
                </g>
                <g transform="matrix(0.1,0,0,-0.1,2260,1024)">
                    <path d="M3002,7213C2970,7209 2969,7207 2976,7177C3009,7022 3190,6917 3367,6950C3404,6957 3438,6964 3442,6967C3452,6972 3416,7031 3368,7084C3271,7195 3164,7233 3002,7213Z" style="fill-rule:nonzero;"/>
                </g>
                <g transform="matrix(0.1,0,0,-0.1,2260,1024)">
                    <path d="M7051,7205C6980,7189 6934,7162 6878,7105C6842,7068 6784,6973 6792,6964C6795,6962 6823,6955 6856,6949C7013,6920 7169,6992 7231,7124C7247,7158 7260,7190 7260,7196C7260,7221 7149,7226 7051,7205Z" style="fill-rule:nonzero;"/>
                </g>
                <g transform="matrix(0.1,0,0,-0.1,2260,1024)">
                    <path d="M4771,7108C4725,6961 4767,6802 4877,6711C4930,6667 5027,6617 5035,6630C5039,6636 5042,6691 5043,6753C5043,6847 5040,6874 5021,6922C4991,6998 4942,7060 4876,7104C4807,7150 4785,7150 4771,7108Z" style="fill-rule:nonzero;"/>
                </g>
                <g transform="matrix(0.1,0,0,-0.1,2260,1024)">
                    <path d="M5369,7111C5272,7050 5211,6967 5190,6869C5177,6811 5184,6620 5199,6620C5217,6620 5334,6699 5377,6740C5442,6803 5463,6855 5468,6965C5472,7062 5456,7133 5430,7138C5422,7139 5394,7127 5369,7111Z" style="fill-rule:nonzero;"/>
                </g>
                <g transform="matrix(0.1,0,0,-0.1,2260,1024)">
                    <path d="M3593,7039C3598,6985 3607,6949 3629,6908L3658,6851L3616,6856C3556,6865 3426,6835 3391,6804C3389,6803 3408,6775 3433,6743C3525,6623 3652,6570 3797,6591C3842,6597 3878,6596 3925,6586C3972,6576 3990,6576 3990,6584C3990,6596 3928,6702 3899,6739C3886,6755 3880,6779 3880,6815C3880,6888 3856,6959 3816,7006C3779,7049 3695,7093 3626,7106L3587,7113L3593,7039Z" style="fill-rule:nonzero;"/>
                </g>
                <g transform="matrix(0.1,0,0,-0.1,2260,1024)">
                    <path d="M6536,7085C6414,7035 6355,6955 6343,6825C6339,6772 6330,6745 6310,6715C6294,6693 6268,6650 6251,6621L6219,6567L6247,6574C6262,6578 6345,6585 6430,6589C6605,6599 6639,6607 6707,6654C6748,6682 6838,6782 6840,6801C6840,6810 6772,6838 6717,6851C6691,6857 6648,6860 6621,6857L6574,6851L6607,6917C6634,6971 6640,6994 6640,7046C6640,7106 6639,7110 6618,7110C6605,7110 6568,7099 6536,7085Z" style="fill-rule:nonzero;"/>
                </g>
                <g transform="matrix(0.1,0,0,-0.1,2260,1024)">
                    <path d="M7469,7020C7421,7012 7348,6983 7317,6958C7300,6945 7303,6941 7359,6901C7392,6878 7441,6852 7466,6843C7546,6816 7651,6841 7724,6906C7751,6929 7751,6932 7736,6949C7712,6976 7613,7017 7560,7022C7535,7025 7494,7024 7469,7020Z" style="fill-rule:nonzero;"/>
                </g>
                <g transform="matrix(0.1,0,0,-0.1,2260,1024)">
                    <path d="M2599,7010C2556,6997 2480,6949 2480,6935C2480,6912 2549,6863 2606,6845C2643,6833 2675,6830 2705,6834C2753,6842 2849,6887 2894,6924L2922,6948L2879,6973C2855,6987 2817,7003 2795,7009C2749,7021 2638,7022 2599,7010Z" style="fill-rule:nonzero;"/>
                </g>
                <g transform="matrix(0.1,0,0,-0.1,2260,1024)">
                    <path d="M4056,6818C4086,6615 4204,6482 4379,6454C4413,6449 4420,6442 4436,6406C4462,6349 4535,6273 4593,6244C4634,6223 4641,6222 4646,6235C4657,6263 4631,6456 4609,6516C4536,6716 4326,6859 4107,6860L4050,6860L4056,6818Z" style="fill-rule:nonzero;"/>
                </g>
                <g transform="matrix(0.1,0,0,-0.1,2260,1024)">
                    <path d="M5986,6845C5897,6820 5808,6768 5740,6700C5668,6629 5628,6562 5607,6479C5591,6419 5574,6220 5585,6220C5588,6220 5616,6232 5647,6247C5711,6279 5772,6343 5795,6405C5811,6445 5815,6449 5856,6455C5913,6463 6005,6511 6052,6557C6102,6605 6148,6695 6165,6777C6173,6815 6180,6848 6180,6853C6180,6865 6039,6859 5986,6845Z" style="fill-rule:nonzero;"/>
                </g>
                <g transform="matrix(0.1,0,0,-0.1,2260,1024)">
                    <path d="M7143,6819C7049,6810 6964,6764 6894,6684C6863,6649 6839,6617 6842,6614C6845,6612 6874,6600 6906,6588C6953,6570 6987,6566 7070,6565C7213,6565 7271,6588 7358,6678C7392,6714 7420,6747 7420,6752C7420,6767 7312,6812 7257,6819C7228,6822 7177,6823 7143,6819Z" style="fill-rule:nonzero;"/>
                </g>
                <g transform="matrix(0.1,0,0,-0.1,2260,1024)">
                    <path d="M2925,6813C2873,6799 2810,6766 2810,6753C2810,6745 2840,6708 2878,6671C2969,6579 3027,6557 3160,6562C3231,6565 3269,6572 3310,6590C3340,6603 3368,6616 3372,6619C3376,6623 3353,6656 3320,6692C3233,6788 3176,6814 3045,6817C2990,6818 2936,6816 2925,6813Z" style="fill-rule:nonzero;"/>
                </g>
                <g transform="matrix(0.1,0,0,-0.1,2260,1024)">
                    <path d="M2268,6773C2232,6767 2232,6747 2269,6666C2340,6510 2449,6447 2688,6425C2755,6419 2760,6420 2760,6438C2760,6475 2686,6605 2638,6653C2580,6711 2489,6755 2400,6769C2334,6780 2317,6780 2268,6773Z" style="fill-rule:nonzero;"/>
                </g>
                <g transform="matrix(0.1,0,0,-0.1,2260,1024)">
                    <path d="M7812,6769C7733,6756 7651,6713 7595,6655C7547,6606 7489,6506 7474,6446L7467,6417L7546,6424C7713,6439 7817,6476 7886,6545C7930,6590 7975,6674 7985,6731C7991,6763 7989,6768 7968,6773C7938,6782 7878,6780 7812,6769Z" style="fill-rule:nonzero;"/>
                </g>
                <g transform="matrix(0.1,0,0,-0.1,2260,1024)">
                    <path d="M4777,6563C4762,6559 4760,6551 4765,6512C4776,6433 4800,6351 4850,6215C4903,6068 4948,5905 4937,5894C4933,5890 4875,5914 4807,5948C4740,5981 4633,6033 4569,6063C4472,6110 4445,6128 4399,6178C4366,6213 4334,6261 4321,6294C4296,6354 4293,6355 4223,6329C4196,6319 4196,6320 4214,6255C4262,6080 4356,5972 4540,5880C4732,5784 4846,5654 4896,5475C4918,5395 4926,5098 4910,4941C4904,4877 4897,4823 4895,4822C4893,4820 4867,4831 4838,4846C4773,4881 4627,5025 4497,5182C4443,5246 4369,5326 4333,5360C4213,5470 4038,5561 3861,5606C3754,5634 3590,5650 3590,5632C3590,5600 3785,5459 3909,5403C4145,5295 4344,5091 4430,4868C4463,4783 4487,4693 4478,4685C4475,4682 4454,4687 4431,4695C4379,4713 4093,4775 3990,4789C3949,4795 3821,4807 3705,4814C3388,4836 3285,4865 3180,4966L3121,5022L3086,4993C3066,4978 3050,4963 3050,4959C3050,4948 3108,4863 3141,4826C3159,4805 3194,4775 3218,4760L3262,4733L3149,4661C2984,4556 2867,4501 2772,4485C2689,4470 2689,4470 2497,4506C2413,4521 2389,4522 2328,4512C2290,4505 2235,4489 2206,4475C2150,4449 2056,4364 2066,4349C2069,4344 2095,4326 2123,4310C2183,4276 2303,4246 2360,4252C2385,4254 2398,4252 2396,4245C2374,4197 2359,4122 2362,4078L2365,4025L2405,4028C2460,4032 2567,4084 2613,4128C2652,4165 2692,4233 2704,4281C2709,4305 2718,4310 2787,4325C2904,4351 2988,4384 3170,4476C3418,4601 3561,4640 3765,4640C3947,4640 4094,4604 4265,4517C4376,4461 4436,4418 4519,4337C4626,4232 4677,4144 4718,3991C4742,3900 4744,3881 4744,3655C4744,3411 4738,3344 4699,3189C4628,2902 4456,2674 4223,2556C4141,2515 4015,2484 3755,2440C3623,2417 3436,2383 3340,2364C3174,2331 2861,2254 2851,2245C2843,2236 3010,2244 3755,2290C4012,2306 4264,2317 4269,2313C4275,2309 4243,2285 4168,2238C4061,2172 3945,2138 3605,2075L3565,2067L3594,2059C3652,2043 3958,2027 4120,2033C4413,2042 4661,2110 4830,2226C4857,2245 4884,2260 4889,2260C4894,2260 4920,2245 4948,2227C5050,2157 5264,2082 5440,2053C5567,2032 6118,2024 6347,2039C6539,2052 6622,2061 6616,2067C6614,2070 6581,2076 6543,2080C5912,2161 5798,2186 5602,2284C5437,2367 5339,2459 5276,2590C5248,2649 5245,2664 5245,2750C5245,2842 5269,2960 5288,2960C5293,2960 5302,2933 5308,2900C5325,2822 5396,2680 5460,2603C5547,2496 5700,2403 5866,2356C6022,2313 6105,2305 6770,2270C6982,2259 7202,2248 7260,2244C7318,2241 7363,2240 7360,2243C7338,2266 6944,2357 6615,2415C6185,2490 6060,2525 5924,2609C5694,2751 5555,2985 5503,3320C5478,3477 5478,3857 5504,3965C5524,4054 5572,4165 5619,4233C5727,4390 5928,4531 6139,4596C6216,4620 6370,4640 6475,4640C6673,4639 6812,4598 7078,4463C7253,4373 7345,4338 7453,4320C7496,4312 7520,4303 7520,4295C7520,4234 7622,4105 7700,4065C7753,4039 7845,4015 7860,4025C7875,4034 7872,4139 7855,4196C7847,4223 7840,4246 7840,4248C7840,4249 7855,4250 7873,4250C7938,4251 8043,4280 8108,4316L8174,4353L8113,4411C8000,4517 7881,4540 7670,4497C7559,4474 7537,4472 7471,4481C7430,4487 7367,4503 7331,4516C7263,4542 7118,4624 7017,4693L6960,4733L6997,4758C7053,4794 7117,4859 7151,4911C7167,4936 7180,4960 7180,4963C7180,4966 7164,4981 7145,4996L7110,5023L7052,4968C6942,4863 6851,4837 6519,4815C6273,4799 6135,4778 5913,4725C5833,4706 5764,4690 5760,4690C5746,4690 5789,4829 5829,4916C5883,5031 5933,5105 6014,5189C6102,5280 6157,5317 6335,5408C6472,5478 6581,5554 6628,5612L6652,5640L6608,5640C6508,5640 6285,5585 6165,5531C6008,5459 5885,5356 5710,5150C5497,4897 5382,4718 5348,4585C5336,4536 5335,4540 5324,4720C5306,4991 5307,5349 5325,5434C5354,5571 5441,5710 5547,5789C5579,5813 5646,5852 5695,5877C5861,5961 5921,6014 5980,6129C6002,6173 6033,6317 6024,6332C6021,6336 5999,6340 5974,6340C5940,6340 5928,6336 5924,6323C5908,6268 5861,6195 5814,6150C5773,6111 5726,6083 5622,6034C5547,5999 5441,5947 5388,5920C5335,5892 5289,5870 5287,5870C5271,5870 5330,6073 5399,6251C5423,6314 5446,6398 5455,6455C5473,6565 5471,6570 5409,6570L5372,6570L5345,6484C5323,6411 5311,6390 5271,6350C5235,6314 5212,6300 5172,6290C5038,6258 4936,6331 4884,6495C4863,6563 4861,6565 4829,6567C4810,6567 4787,6566 4777,6563Z" style="fill-rule:nonzero;"/>
                </g>
                <g transform="matrix(0.1,0,0,-0.1,2260,1024)">
                    <path d="M3343,6496C3299,6482 3210,6433 3210,6424C3210,6412 3258,6377 3309,6353C3397,6311 3491,6328 3575,6401C3594,6418 3610,6436 3610,6440C3610,6445 3584,6461 3553,6475C3486,6507 3402,6516 3343,6496Z" style="fill-rule:nonzero;"/>
                </g>
                <g transform="matrix(0.1,0,0,-0.1,2260,1024)">
                    <path d="M6712,6495C6659,6480 6610,6454 6610,6440C6610,6428 6676,6373 6711,6355C6753,6333 6827,6326 6875,6339C6922,6351 7002,6407 6998,6424C6992,6444 6866,6499 6815,6505C6786,6508 6743,6504 6712,6495Z" style="fill-rule:nonzero;"/>
                </g>
                <g transform="matrix(0.1,0,0,-0.1,2260,1024)">
                    <path d="M2913,6386C2916,6336 2926,6297 2943,6263C2967,6217 3035,6144 3076,6122C3093,6113 3249,6060 3259,6060C3261,6060 3260,6095 3258,6138C3251,6246 3200,6340 3115,6398C3077,6423 2970,6460 2934,6460L2907,6460L2913,6386Z" style="fill-rule:nonzero;"/>
                </g>
                <g transform="matrix(0.1,0,0,-0.1,2260,1024)">
                    <path d="M3721,6450C3697,6445 3675,6438 3672,6435C3662,6425 3718,6322 3756,6281C3815,6214 3884,6187 4005,6182L4108,6177L4099,6220C4078,6311 4021,6388 3947,6425C3887,6454 3791,6464 3721,6450Z" style="fill-rule:nonzero;"/>
                </g>
                <g transform="matrix(0.1,0,0,-0.1,2260,1024)">
                    <path d="M6347,6449C6290,6436 6236,6405 6205,6368C6173,6330 6133,6249 6124,6202C6118,6171 6119,6170 6151,6170C6281,6171 6399,6211 6464,6276C6502,6315 6566,6427 6556,6438C6537,6456 6407,6463 6347,6449Z" style="fill-rule:nonzero;"/>
                </g>
                <g transform="matrix(0.1,0,0,-0.1,2260,1024)">
                    <path d="M7185,6437C7106,6408 7013,6318 6988,6245C6971,6196 6952,6060 6962,6060C6982,6060 7133,6116 7167,6136C7259,6189 7310,6283 7310,6397L7310,6460L7278,6459C7260,6459 7218,6449 7185,6437Z" style="fill-rule:nonzero;"/>
                </g>
                <g transform="matrix(0.1,0,0,-0.1,2260,1024)">
                    <path d="M2262,6345C2190,6329 2075,6270 2075,6250C2075,6228 2204,6134 2268,6109C2312,6091 2345,6086 2415,6086C2498,6086 2513,6090 2608,6128C2664,6151 2720,6170 2732,6170C2752,6170 2750,6174 2715,6211C2601,6327 2419,6381 2262,6345Z" style="fill-rule:nonzero;"/>
                </g>
                <g transform="matrix(0.1,0,0,-0.1,2260,1024)">
                    <path d="M7765,6346C7726,6339 7667,6319 7634,6302C7566,6268 7468,6178 7491,6172C7499,6170 7550,6151 7605,6130C7660,6109 7728,6089 7755,6085C7868,6070 8025,6124 8120,6210C8156,6244 8162,6253 8150,6261C8026,6343 7899,6371 7765,6346Z" style="fill-rule:nonzero;"/>
                </g>
                <g transform="matrix(0.1,0,0,-0.1,2260,1024)">
                    <path d="M3428,6213C3422,6198 3416,6140 3416,6085C3415,5969 3433,5918 3495,5856C3532,5818 3640,5760 3671,5760C3693,5760 3700,5789 3700,5892C3700,5956 3694,5994 3680,6034C3647,6121 3556,6206 3463,6234C3444,6240 3438,6236 3428,6213Z" style="fill-rule:nonzero;"/>
                </g>
                <g transform="matrix(0.1,0,0,-0.1,2260,1024)">
                    <path d="M6724,6215C6664,6188 6599,6128 6571,6072C6542,6015 6528,5919 6536,5830L6542,5752L6569,5760C6584,5764 6616,5778 6640,5790C6758,5850 6811,5927 6818,6050C6823,6134 6805,6240 6787,6239C6780,6239 6752,6228 6724,6215Z" style="fill-rule:nonzero;"/>
                </g>
                <g transform="matrix(0.1,0,0,-0.1,2260,1024)">
                    <path d="M3833,6054C3830,6044 3832,6010 3839,5977C3881,5775 4027,5659 4282,5624L4328,5618L4323,5661C4300,5850 4177,5994 4000,6043C3970,6052 3921,6061 3892,6065C3848,6070 3839,6068 3833,6054Z" style="fill-rule:nonzero;"/>
                </g>
                <g transform="matrix(0.1,0,0,-0.1,2260,1024)">
                    <path d="M6306,6059C6083,6022 5945,5887 5911,5671C5902,5611 5898,5612 6016,5635C6103,5652 6203,5695 6261,5741C6340,5803 6400,5927 6400,6026C6400,6075 6400,6075 6306,6059Z" style="fill-rule:nonzero;"/>
                </g>
                <g transform="matrix(0.1,0,0,-0.1,2260,1024)">
                    <path d="M2643,6040C2620,6035 2587,6024 2568,6015C2535,5998 2470,5942 2470,5930C2470,5926 2493,5911 2521,5896C2605,5849 2722,5861 2789,5923C2814,5946 2864,6020 2858,6025C2855,6029 2702,6051 2692,6049C2688,6048 2666,6044 2643,6040Z" style="fill-rule:nonzero;"/>
                </g>
                <g transform="matrix(0.1,0,0,-0.1,2260,1024)">
                    <path d="M7428,6038C7396,6032 7370,6025 7370,6021C7370,6017 7384,5993 7401,5967C7463,5873 7585,5844 7701,5896C7734,5911 7760,5926 7760,5931C7760,5944 7684,5999 7638,6020C7582,6045 7502,6051 7428,6038Z" style="fill-rule:nonzero;"/>
                </g>
                <g transform="matrix(0.1,0,0,-0.1,2260,1024)">
                    <path d="M2964,5930C2973,5855 2991,5801 3031,5737C3048,5710 3056,5690 3048,5693C2899,5758 2840,5768 2727,5746C2653,5732 2560,5695 2560,5680C2560,5663 2687,5537 2722,5519C2852,5453 3032,5466 3155,5550L3200,5581L3247,5540C3353,5447 3508,5398 3640,5416L3705,5425L3600,5502C3472,5595 3439,5629 3362,5745C3300,5839 3249,5893 3190,5927C3146,5953 3027,5990 2988,5990L2957,5990L2964,5930Z" style="fill-rule:nonzero;"/>
                </g>
                <g transform="matrix(0.1,0,0,-0.1,2260,1024)">
                    <path d="M7161,5974C7030,5939 6939,5865 6860,5731C6806,5637 6761,5593 6632,5505C6576,5467 6530,5432 6530,5429C6530,5417 6646,5411 6710,5419C6799,5431 6875,5462 6956,5518L7024,5566L7103,5526L7182,5485L7304,5485C7421,5485 7428,5486 7493,5518C7540,5542 7575,5568 7612,5611C7641,5644 7665,5676 7665,5682C7665,5698 7586,5727 7496,5746C7408,5765 7310,5752 7227,5710L7169,5681L7191,5716C7232,5783 7252,5833 7262,5897C7267,5932 7269,5968 7266,5976C7259,5993 7231,5993 7161,5974Z" style="fill-rule:nonzero;"/>
                </g>
                <g transform="matrix(0.1,0,0,-0.1,2260,1024)">
                    <path d="M2076,5952C2049,5942 2025,5929 2022,5922C2016,5903 2108,5813 2158,5788C2218,5759 2321,5758 2408,5784C2442,5795 2470,5806 2470,5809C2470,5830 2369,5926 2326,5946C2262,5976 2150,5978 2076,5952Z" style="fill-rule:nonzero;"/>
                </g>
                <g transform="matrix(0.1,0,0,-0.1,2260,1024)">
                    <path d="M7928,5960C7880,5946 7836,5913 7791,5858L7748,5805L7781,5792C7873,5754 7988,5758 8077,5801C8123,5823 8216,5919 8203,5931C8171,5961 7994,5980 7928,5960Z" style="fill-rule:nonzero;"/>
                </g>
                <g transform="matrix(0.1,0,0,-0.1,2260,1024)">
                    <path d="M4474,5645C4455,5515 4494,5395 4580,5317C4632,5270 4735,5211 4745,5222C4749,5226 4753,5275 4754,5332C4755,5424 4752,5441 4728,5492C4683,5589 4599,5663 4508,5685C4483,5691 4481,5690 4474,5645Z" style="fill-rule:nonzero;"/>
                </g>
                <g transform="matrix(0.1,0,0,-0.1,2260,1024)">
                    <path d="M5659,5660C5628,5644 5582,5608 5557,5580C5493,5509 5475,5450 5477,5322C5478,5265 5481,5216 5483,5213C5494,5203 5628,5291 5669,5335C5741,5413 5766,5495 5755,5616C5746,5702 5743,5704 5659,5660Z" style="fill-rule:nonzero;"/>
                </g>
                <g transform="matrix(0.1,0,0,-0.1,2260,1024)">
                    <path d="M2140,5595C2070,5575 1988,5526 1943,5476L1907,5437L1936,5413C1996,5365 2066,5346 2185,5345C2288,5345 2299,5347 2360,5376C2396,5394 2453,5432 2487,5461C2559,5524 2558,5528 2460,5573C2405,5598 2380,5603 2295,5606C2225,5609 2178,5605 2140,5595Z" style="fill-rule:nonzero;"/>
                </g>
                <g transform="matrix(0.1,0,0,-0.1,2260,1024)">
                    <path d="M7833,5595C7771,5578 7680,5533 7680,5521C7680,5504 7825,5387 7870,5367C7925,5342 8064,5333 8138,5349C8195,5361 8262,5390 8300,5420L8325,5439L8276,5485C8249,5510 8194,5547 8153,5567C8087,5600 8071,5603 7982,5606C7917,5609 7868,5605 7833,5595Z" style="fill-rule:nonzero;"/>
                </g>
                <g transform="matrix(0.1,0,0,-0.1,2260,1024)">
                    <path d="M2554,5383C2533,5379 2532,5378 2546,5319C2554,5286 2569,5241 2581,5219C2609,5164 2676,5093 2722,5069C2766,5046 2908,5024 2922,5038C2928,5044 2927,5073 2920,5114C2906,5189 2853,5282 2802,5319C2734,5367 2620,5397 2554,5383Z" style="fill-rule:nonzero;"/>
                </g>
                <g transform="matrix(0.1,0,0,-0.1,2260,1024)">
                    <path d="M3022,5383C2993,5377 2997,5354 3040,5265C3073,5197 3124,5140 3186,5104C3235,5075 3343,5050 3419,5050L3473,5050L3466,5081C3455,5138 3400,5238 3355,5285C3291,5350 3215,5383 3120,5386C3079,5387 3034,5386 3022,5383Z" style="fill-rule:nonzero;"/>
                </g>
                <g transform="matrix(0.1,0,0,-0.1,2260,1024)">
                    <path d="M7023,5376C6915,5341 6844,5275 6791,5159C6744,5057 6744,5056 6817,5052C6880,5049 6981,5070 7033,5096C7073,5117 7139,5179 7165,5220C7193,5264 7233,5371 7225,5379C7212,5391 7064,5389 7023,5376Z" style="fill-rule:nonzero;"/>
                </g>
                <g transform="matrix(0.1,0,0,-0.1,2260,1024)">
                    <path d="M7542,5374C7475,5356 7458,5347 7408,5302C7349,5249 7300,5138 7300,5057L7300,5028L7363,5035C7536,5054 7653,5169 7676,5343L7683,5390L7639,5389C7615,5389 7571,5382 7542,5374Z" style="fill-rule:nonzero;"/>
                </g>
                <g transform="matrix(0.1,0,0,-0.1,2260,1024)">
                    <path d="M3602,5250C3584,5246 3566,5239 3562,5236C3559,5232 3568,5204 3584,5174C3652,5044 3767,4961 3891,4952C3968,4947 4120,4957 4140,4970C4156,4980 4129,5028 4063,5107C3977,5210 3861,5261 3716,5259C3672,5258 3620,5254 3602,5250Z" style="fill-rule:nonzero;"/>
                </g>
                <g transform="matrix(0.1,0,0,-0.1,2260,1024)">
                    <path d="M6359,5236C6278,5208 6214,5165 6163,5105C6121,5056 6073,4974 6081,4966C6093,4954 6282,4944 6339,4951C6466,4969 6574,5048 6636,5171L6669,5238L6619,5249C6535,5267 6433,5262 6359,5236Z" style="fill-rule:nonzero;"/>
                </g>
                <g transform="matrix(0.1,0,0,-0.1,2260,1024)">
                    <path d="M2094,5186C2066,5179 2023,5162 1999,5148C1946,5117 1847,5015 1852,4997C1855,4991 1887,4969 1924,4950C1984,4920 2002,4915 2086,4912C2174,4908 2180,4906 2166,4891C2145,4867 2103,4772 2095,4729C2089,4695 2090,4693 2118,4687C2157,4679 2264,4696 2304,4717C2394,4762 2451,4833 2477,4935C2487,4971 2499,5000 2505,5000C2510,5000 2533,5005 2555,5011L2594,5022L2560,5052C2409,5181 2255,5225 2094,5186Z" style="fill-rule:nonzero;"/>
                </g>
                <g transform="matrix(0.1,0,0,-0.1,2260,1024)">
                    <path d="M7891,5184C7861,5176 7816,5158 7791,5145C7737,5115 7628,5025 7637,5016C7640,5013 7665,5007 7692,5004C7721,5000 7740,4992 7740,4985C7740,4978 7749,4943 7760,4907C7784,4829 7848,4753 7915,4720C7965,4696 8069,4678 8112,4687C8138,4692 8140,4696 8135,4724C8132,4741 8112,4790 8091,4833L8052,4910L8114,4910C8209,4910 8363,4961 8377,4997C8384,5015 8302,5100 8240,5140C8154,5195 8003,5214 7891,5184Z" style="fill-rule:nonzero;"/>
                </g>
                <g transform="matrix(0.1,0,0,-0.1,2260,1024)">
                    <path d="M2662,4868C2612,4851 2537,4779 2502,4711L2470,4651L2527,4640C2616,4621 2754,4632 2820,4662C2885,4692 2990,4779 2987,4800C2986,4808 2958,4828 2926,4845C2875,4871 2854,4875 2781,4877C2734,4878 2680,4874 2662,4868Z" style="fill-rule:nonzero;"/>
                </g>
                <g transform="matrix(0.1,0,0,-0.1,2260,1024)">
                    <path d="M7315,4859C7288,4849 7254,4831 7240,4820L7215,4800L7260,4760C7372,4659 7437,4630 7547,4630C7636,4630 7750,4650 7750,4665C7750,4672 7732,4705 7709,4739C7667,4802 7611,4848 7551,4868C7497,4887 7373,4882 7315,4859Z" style="fill-rule:nonzero;"/>
                </g>
                <g transform="matrix(0.1,0,0,-0.1,2260,1024)">
                    <path d="M3686,4489C3626,4480 3525,4437 3481,4402L3458,4383L3496,4353C3630,4248 3800,4238 3971,4325C4024,4352 4089,4394 4090,4402C4090,4418 3953,4473 3881,4486C3796,4501 3771,4501 3686,4489Z" style="fill-rule:nonzero;"/>
                </g>
                <g transform="matrix(0.1,0,0,-0.1,2260,1024)">
                    <path d="M6345,4486C6271,4471 6225,4454 6166,4419L6130,4398L6175,4369C6315,4280 6429,4249 6542,4269C6612,4281 6691,4317 6739,4358L6773,4387L6725,4420C6631,4485 6477,4511 6345,4486Z" style="fill-rule:nonzero;"/>
                </g>
                <g transform="matrix(0.1,0,0,-0.1,2260,1024)">
                    <path d="M6886,4308C6883,4284 6878,4241 6874,4213L6867,4160C6867,4160 6768,4025 6784,3961C6820,3814 6935,3710 7080,3693L7130,3687L7130,3778C7130,3835 7124,3887 7114,3916C7106,3941 7100,3963 7102,3965C7104,3966 7142,3961 7187,3953L7268,3938L7285,3865C7303,3781 7358,3688 7411,3647C7430,3634 7468,3611 7496,3596L7548,3571L7569,3621C7612,3720 7605,3853 7551,3958C7514,4031 7381,4160 7343,4160C7334,4160 7330,4146 7330,4118C7330,4061 7322,4052 7278,4058C7245,4062 7237,4068 7210,4116C7176,4176 7107,4235 6997,4298C6891,4358 6893,4358 6886,4308Z" style="fill-rule:nonzero;"/>
                </g>
                <g transform="matrix(-0.1,0,0,-0.1,3284.3,1024)">
                    <path d="M6886,4308C6883,4284 6878,4241 6874,4213L6867,4160C6867,4160 6768,4025 6784,3961C6820,3814 6935,3710 7080,3693L7130,3687L7130,3778C7130,3835 7124,3887 7114,3916C7106,3941 7100,3963 7102,3965C7104,3966 7142,3961 7187,3953L7268,3938L7285,3865C7303,3781 7358,3688 7411,3647C7430,3634 7468,3611 7496,3596L7548,3571L7569,3621C7612,3720 7605,3853 7551,3958C7514,4031 7381,4160 7343,4160C7334,4160 7330,4146 7330,4118C7330,4061 7322,4052 7278,4058C7245,4062 7237,4068 7210,4116C7176,4176 7107,4235 6997,4298C6891,4358 6893,4358 6886,4308Z" style="fill-rule:nonzero;"/>
                </g>
                <g transform="matrix(0.1,0,0,-0.1,2260,1024)">
                    <path d="M4118,4266C4093,4259 4060,4246 4046,4236L4019,4219L4086,4145C4160,4062 4219,4027 4315,4009C4368,3999 4516,4003 4528,4014C4536,4022 4483,4124 4451,4164C4371,4264 4249,4301 4118,4266Z" style="fill-rule:nonzero;"/>
                </g>
                <g transform="matrix(0.1,0,0,-0.1,2260,1024)">
                    <path d="M5935,4266C5869,4245 5834,4223 5793,4176C5751,4129 5694,4022 5705,4012C5708,4008 5762,4005 5824,4005C5934,4005 5939,4006 6012,4043C6072,4072 6101,4095 6150,4149L6211,4219L6188,4234C6153,4256 6062,4280 6016,4279C5993,4279 5957,4273 5935,4266Z" style="fill-rule:nonzero;"/>
                </g>
                <g transform="matrix(0.1,0,0,-0.1,2260,1024)">
                    <path d="M3792,4084C3580,3978 3473,3796 3496,3582L3503,3518L3542,3524C3651,3542 3767,3603 3825,3674C3890,3754 3913,3822 3918,3945C3922,4053 3913,4121 3894,4127C3889,4129 3843,4109 3792,4084Z" style="fill-rule:nonzero;"/>
                </g>
                <g transform="matrix(0.1,0,0,-0.1,2260,1024)">
                    <path d="M6313,4083C6267,3800 6425,3558 6678,3524L6728,3518L6735,3592C6755,3800 6649,3977 6442,4083C6391,4109 6343,4130 6335,4130C6326,4130 6318,4112 6313,4083Z" style="fill-rule:nonzero;"/>
                </g>
                <g transform="matrix(0.1,0,0,-0.1,2260,1024)">
                    <path d="M4044,3955C4030,3855 4070,3735 4135,3686C4175,3655 4240,3630 4280,3630C4304,3630 4308,3635 4314,3669C4321,3714 4307,3797 4285,3844C4253,3911 4165,3977 4083,3994C4052,4001 4051,4001 4044,3955Z" style="fill-rule:nonzero;"/>
                </g>
                <g transform="matrix(0.1,0,0,-0.1,2260,1024)">
                    <path d="M6119,3984C5999,3948 5925,3858 5913,3737C5910,3701 5910,3660 5914,3645C5920,3621 5924,3619 5953,3625C6087,3654 6174,3744 6180,3860C6184,3934 6180,4000 6173,3999C6168,3999 6144,3992 6119,3984Z" style="fill-rule:nonzero;"/>
                </g>
                <g transform="matrix(0.1,0,0,-0.1,2260,1024)">
                    <path d="M4370,2983C3946,2965 3324,2856 2876,2720C2507,2608 2107,2449 2006,2374C1985,2358 1985,2358 2010,2364C2082,2383 2564,2475 2774,2510C3054,2556 3522,2620 3795,2650C3900,2662 4013,2678 4047,2685C4132,2705 4234,2758 4298,2815C4356,2867 4445,2977 4433,2982C4428,2984 4400,2984 4370,2983Z" style="fill-rule:nonzero;"/>
                </g>
                <g transform="matrix(0.1,0,0,-0.1,2260,1024)">
                    <path d="M5800,2974C5800,2961 5902,2842 5944,2807C6071,2701 6153,2678 6580,2630C7107,2570 7829,2454 8163,2376C8194,2368 8220,2366 8220,2370C8220,2380 7964,2501 7830,2553C7424,2711 7002,2829 6585,2899C6262,2954 5800,2998 5800,2974Z" style="fill-rule:nonzero;"/>
                </g>
            </g>
        </g>
    </g>
</svg>
