<?xml version="1.0" encoding="UTF-8" standalone="no"?>
<!DOCTYPE svg PUBLIC "-//W3C//DTD SVG 1.1//EN" "http://www.w3.org/Graphics/SVG/1.1/DTD/svg11.dtd">
<svg width="100%" height="100%" viewBox="0 0 1080 1080" version="1.1" xmlns="http://www.w3.org/2000/svg" xmlns:xlink="http://www.w3.org/1999/xlink" xml:space="preserve" xmlns:serif="http://www.serif.com/" style="fill-rule:evenodd;clip-rule:evenodd;stroke-linecap:round;stroke-linejoin:round;stroke-miterlimit:1.5;">
    <g id="Logo">
        <g transform="matrix(2.3553,0,0,2.13015,-1369.17,-1397.37)">
            <path d="M704.282,990.406L704.282,867.558L925.911,867.558L925.911,990.406" style="fill:none;stroke:black;stroke-width:31.4px;"/>
        </g>
        <g transform="matrix(2.74375,0,0,2.74375,-356.356,-2119.58)">
            <path d="M330.518,1018.36C316.585,1044.62 288.956,1047.53 257.177,1047.53C211.388,1047.53 174.214,1010.36 174.214,964.568C174.214,922.773 205.186,888.156 245.41,882.435C245.354,881.177 245.325,879.913 245.325,878.642C245.325,832.854 282.499,795.679 328.288,795.679C374.076,795.679 411.251,832.854 411.251,878.642C411.251,879.732 411.23,880.818 411.188,881.898C453.542,885.62 486.806,921.226 486.806,964.539C486.806,1010.33 449.632,1047.5 403.843,1047.5C372.076,1047.5 344.455,1044.61 330.518,1018.36Z" style="fill:none;stroke:black;stroke-width:25.7px;"/>
        </g>
        <g transform="matrix(2.74375,0,0,2.74375,-356.356,-2119.58)">
            <path d="M269.582,971.157L330.518,1018.36" style="fill:none;stroke:black;stroke-width:25.7px;"/>
        </g>
        <g transform="matrix(2.74375,0,0,2.74375,-357.956,-1749.98)">
            <path d="M330.993,886.697L330.956,1018.36" style="fill:none;stroke:black;stroke-width:25.7px;"/>
        </g>
        <g transform="matrix(-2.74375,0,0,2.74375,1456.66,-2121.62)">
            <path d="M268.555,971.455L330.518,1018.36" style="fill:none;stroke:black;stroke-width:25.7px;"/>
        </g>
    </g>
</svg>
